# Exported by BFBB JSP Tool
mtllib [26D24CDE] teleportation_box_bind.MTL

g obj_tele_box
usemtl tele_box_m

v -0.788485 0.0084 0.7625916
v -0.788485 0.0084 0.7625916
v -0.788485 0.0084 0.7625916
v 0.825315 0.0072 0.6957915
v 0.825315 0.0072 0.6957915
v 0.825315 0.0072 0.6957915
v -0.785285 1.585 0.6989915
v -0.785285 1.585 0.6989915
v -0.785285 1.585 0.6989915
v 0.820715 1.5574 0.6579915
v 0.820715 1.5574 0.6579915
v 0.820715 1.5574 0.6579915
v -0.786185 1.6352 -0.7621084
v -0.786185 1.6352 -0.7621084
v -0.786185 1.6352 -0.7621084
v 0.824415 1.5846 -0.7615085
v 0.824415 1.5846 -0.7615085
v 0.824415 1.5846 -0.7615085
v -0.787385 0.0163 -0.7680085
v -0.787385 0.0163 -0.7680085
v -0.787385 0.0163 -0.7680085
v 0.825015 0.0126 -0.8172085
v 0.825015 0.0126 -0.8172085
v 0.825015 0.0126 -0.8172085
v -1.205285 0.8016 0.7088915
v -1.205285 0.8016 -0.7726085
v 1.131415 0.856 0.7088915
v 1.131415 0.856 -0.7726085
v -0.784385 0.7548 0.7028915
v -0.784385 0.7548 0.7028915
v 0.762915 0.7404 0.7551916
v 0.762915 0.7404 0.7551916
v 0.778915 0.7139 -0.7910085
v 0.778915 0.7139 -0.7910085
v -0.757685 0.7071 -0.6932085
v -0.757685 0.7071 -0.6932085

vn -0.9996 0.0236 -0.0098
vn -0.0016 -0.9999 -0.0043
vn 0.0045 0.0004 0.9999
vn -0.0016 -0.9999 -0.0043
vn 0.0045 0.0004 0.9999
vn 0.9971 0.0751 0.0045
vn -0.9998 -0.017 -0.009
vn -0.8875 0.4605 0.0081
vn -0.0027 0.0612 0.9981
vn -0.9179 -0.3966 -0.0049
vn -0.0027 0.0612 0.9981
vn 0.9981 -0.0607 0.0066
vn -0.9998 -0.017 -0.009
vn -0.8875 0.4605 0.0081
vn -0.0311 -0.0216 -0.9992
vn -0.9179 -0.3966 -0.0049
vn -0.0311 -0.0216 -0.9992
vn 0.9981 -0.0607 0.0066
vn -0.9996 0.0236 -0.0098
vn -0.0465 0.0717 -0.9963
vn -0.0016 -0.9999 -0.0043
vn -0.0465 0.0717 -0.9963
vn -0.0016 -0.9999 -0.0043
vn 0.9971 0.0751 0.0045
vn -0.8875 0.4605 0.0081
vn -0.8875 0.4605 0.0081
vn -0.9179 -0.3966 -0.0049
vn -0.9179 -0.3966 -0.0049
vn -0.9999 0.0032 -0.0094
vn 0.0009 0.0308 0.9995
vn 0.0009 0.0308 0.9995
vn 0.9999 0.0072 0.0056
vn -0.0389 0.025 -0.9989
vn 0.9999 0.0072 0.0056
vn -0.9999 0.0032 -0.0094
vn -0.0389 0.025 -0.9989

vt 0 4
vt 0 9.989738E-05
vt 0 4
vt 0.9999 9.989738E-05
vt 0.9999 4
vt 0.9999 4
vt 0 3.0001
vt 0 4
vt 0 3.0001
vt 0 4
vt 0.9999 3.0001
vt 0.9999 3.0001
vt -0.9999 3.0001
vt 0.9999 4
vt 0 2.0001
vt 0.9999 4
vt 0.9999 2.0001
vt 1.9999 3.0001
vt -0.9999 4
vt 0 1.0001
vt 0 1.0001
vt 0.9999 1.0001
vt 0.9999 1.0001
vt 1.9999 4
vt 0 3.0001
vt 0.9999 3.0001
vt 0 3.0001
vt 0.9999 3.0001
vt 0 3.5001
vt 0 3.5001
vt 0.9999 3.5001
vt 0.9999 3.5001
vt 0.9999 1.4713
vt 1.9999 3.5288
vt -0.9999 3.5351
vt 0 1.465

f 11/11/11 9/9/9 31/31/31
f 30/30/30 31/31/31 9/9/9
f 15/15/15 17/17/17 36/36/36
f 17/17/17 33/33/33 36/36/36
f 2/2/2 21/21/21 4/4/4
f 21/21/21 23/23/23 4/4/4
f 32/32/32 34/34/34 12/12/12
f 34/34/34 18/18/18 12/12/12
f 13/13/13 35/35/35 7/7/7
f 35/35/35 29/29/29 7/7/7
f 14/14/14 26/26/26 8/8/8
f 8/8/8 26/26/26 25/25/25
f 27/27/27 10/10/10 28/28/28
f 10/10/10 16/16/16 28/28/28
f 5/5/5 31/31/31 3/3/3
f 3/3/3 31/31/31 30/30/30
f 32/32/32 6/6/6 34/34/34
f 6/6/6 24/24/24 34/34/34
f 22/22/22 20/20/20 33/33/33
f 36/36/36 33/33/33 20/20/20
f 19/19/19 1/1/1 35/35/35
f 1/1/1 29/29/29 35/35/35

