# Exported by BFBB JSP Tool
mtllib [51770B82] krabby_patty_bind.MTL

g obj_patty_all
usemtl patty_all_m

v -0.4334 0.2764 0.2173
v -0.4334 0.2764 0.2173
v -0.3941 0.4345 0.0286
v -0.3941 0.4345 0.0286
v -0.3848 0.1826 -0.0154
v -0.3821 0.5296 0.094
v -0.381 0.4496 -0.0754
v -0.381 0.4496 -0.0754
v -0.355 0.3107 0.0326
v -0.3518 0.0405 0.1179
v -0.3501 0.456 0.3181
v -0.3458 0.3577 0.2143
v -0.3458 0.3577 0.2143
v -0.3425 0.4241 0.2347
v -0.3425 0.4241 0.2347
v -0.3425 0.4241 0.2347
v -0.3425 0.4241 0.2347
v -0.3425 0.4241 0.2347
v -0.3414 0.3548 0.213
v -0.3414 0.3548 0.213
v -0.3414 0.3548 0.213
v -0.3404 0.6002 0.2377
v -0.3386 0.1957 0.1633
v -0.3386 0.1957 0.1633
v -0.3118 0.5813 -0.0552
v -0.3074 0.4377 -0.0387
v -0.3046 0.5028 -0.0143
v -0.3046 0.5028 -0.0143
v -0.3046 0.5028 -0.0143
v -0.3046 0.5028 -0.0143
v -0.3046 0.5028 -0.0143
v -0.3037 0.4383 -0.0345
v -0.3037 0.4383 -0.0345
v -0.3008 0.6651 -0.0165
v -0.2995 0.1067 -0.1406
v -0.2927 0.4899 -0.1394
v -0.2894 0.2767 -0.0759
v -0.2894 0.2767 -0.0759
v -0.2827 0.3118 0.4019
v -0.2827 0.3118 0.4019
v -0.2796 0.0817 0.2972
v -0.2591 0.2186 0.3177
v -0.2414 0.6674 0.1322
v -0.2402 0.4167 0.4458
v -0.2325 0.508 0.4619
v -0.2208 0.2736 0.4678
v -0.2208 0.2736 0.4678
v -0.214 0.6827 0.1672
v -0.2138 0.6601 0.184
v -0.1884 0.6764 0.1574
v -0.1838 0.597 0.3568
v -0.1788 0.3011 0.3993
v -0.1788 0.3011 0.3993
v -0.1781 0.3683 0.4167
v -0.1781 0.3683 0.4167
v -0.1781 0.3683 0.4167
v -0.1781 0.3683 0.4167
v -0.1781 0.3683 0.4167
v -0.1781 0.3683 0.4167
v -0.1781 0.3683 0.4167
v -0.1779 0.6693 0.1936
v -0.177 0.2991 0.395
v -0.177 0.2991 0.395
v -0.177 0.2991 0.395
v -0.1597 0.699 0.1094
v -0.1545 -0.0323 0.2903
v -0.154 0.6017 0.3911
v -0.1531 0.5759 0.4023
v -0.1519 0.1447 0.3329
v -0.1519 0.1447 0.3329
v -0.1395 0.2804 0.4833
v -0.1395 0.2804 0.4833
v -0.1305 0.6918 0.1391
v -0.1291 0.5978 0.3785
v -0.1256 0.6204 0.3486
v -0.1165 0.5828 0.4114
v -0.1114 0.6799 0.1837
v -0.095 0.7094 0.144
v -0.0823 0.3987 0.5139
v -0.0784 0.7082 0.0959
v -0.0677 0.6859 0.1623
v -0.0628 0.0522 0.4051
v -0.0614 0.1917 0.4161
v -0.06 0.6378 0.3178
v -0.0599 0.6654 0.2658
v -0.0596 0.7242 -0.1101
v -0.0461 0.6607 0.3091
v -0.0302 0.6301 0.3406
v -0.0222 0.646 0.3067
v -0.0192 0.7034 0.1645
v -0.0173 0.6836 0.2189
v -0.0062 0.5732 0.4316
v -0.004 0.5906 0.3975
v 0.0062 0.6804 0.2123
v 0.0125 0.7034 0.1973
v 0.0182 0.6047 0.4073
v 0.0285 0.5212 0.5076
v 0.0288 0.5812 0.4186
v 0.0342 0.6903 0.1851
v 0.0436 0.6768 0.2198
v 0.0438 0.6107 0.37
v 0.0919 0.7164 0.0792
v 0.0982 0.1381 0.3748
v 0.0982 0.1381 0.3748
v 0.1068 0.3639 0.4391
v 0.1068 0.3639 0.4391
v 0.1068 0.3639 0.4391
v 0.1068 0.3639 0.4391
v 0.1068 0.3639 0.4391
v 0.1077 0.2995 0.4189
v 0.1077 0.2995 0.4189
v 0.1077 0.2995 0.4189
v 0.1106 0.2966 0.422
v 0.1106 0.2966 0.422
v 0.111 -0.0225 0.3482
v 0.126 0.6378 0.3184
v 0.1437 0.2053 0.4819
v 0.1437 0.2053 0.4819
v 0.1534 0.415 0.4856
v 0.1934 0.6467 0.2443
v 0.2025 0.7 -0.0769
v 0.2177 0.6183 0.2896
v 0.2264 0.6408 0.2752
v 0.238 0.2299 0.3277
v 0.2439 0.387 -0.1441
v 0.2454 0.6253 0.2613
v 0.2545 0.6091 0.2948
v 0.2655 0.094 0.3081
v 0.2698 0.3414 0.3803
v 0.2698 0.3414 0.3803
v 0.2709 0.5428 0.4015
v 0.2775 0.1995 0.2061
v 0.2775 0.1995 0.2061
v 0.2842 0.4178 0.2828
v 0.2842 0.4178 0.2828
v 0.2842 0.4178 0.2828
v 0.2842 0.4178 0.2828
v 0.2842 0.4178 0.2828
v 0.285 0.3563 0.2636
v 0.285 0.3563 0.2636
v 0.2869 0.4532 0.3825
v 0.2908 0.3514 0.2632
v 0.2908 0.3514 0.2632
v 0.2981 0.0253 0.1566
v 0.2992 0.2593 -0.1771
v 0.3094 0.6452 0.1597
v 0.3119 0.4953 0.0425
v 0.3119 0.4953 0.0425
v 0.3119 0.4953 0.0425
v 0.3127 0.4367 0.0243
v 0.3127 0.4367 0.0243
v 0.3191 0.4301 0.019
v 0.3207 0.2797 -0.0313
v 0.3207 0.2797 -0.0313
v 0.3252 0.5785 0.0091
v 0.3398 0.295 0.1409
v 0.3493 0.1299 -0.089
v 0.3572 0.5049 0.2332
v 0.3635 0.346 0.3016
v 0.374 0.4036 0.1877
v 0.374 0.4036 0.1877
v 0.3792 0.1825 0.0605
v 0.4071 0.3817 -0.0251

vn -0.6162344 0.6789379 0.3991223
vn -0.6162344 0.6789379 0.3991223
vn -0.5930407 0.8040552 0.04240291
vn -0.5415314 0.8217478 0.1774103
vn -0.9927697 0.1159082 0.03120219
vn -0.9823946 -0.06770652 -0.1741168
vn -0.5449479 0.8371737 -0.0466041
vn -0.5449479 0.8371737 -0.0466041
vn -0.9962955 -0.06130587 0.06030578
vn -0.9230886 -0.3251312 0.2054197
vn -0.8879302 -0.2844096 0.3615123
vn -0.6162344 0.6789379 0.3991223
vn -0.6162344 0.6789379 0.3991223
vn -0.9597553 -0.0971056 0.2635152
vn -0.9597553 -0.0971056 0.2635152
vn -0.7739179 -0.6332147 -0.00950022
vn -0.5415314 0.8217478 0.1774103
vn -0.4432369 0.6629552 0.6033502
vn -0.9597553 -0.0971056 0.2635152
vn -0.9597553 -0.0971056 0.2635152
vn -0.9507228 0.01440035 0.3097075
vn -0.6629453 0.6780463 0.3174217
vn -0.9109222 -0.3675089 0.1875046
vn -0.8439359 0.3582153 0.399317
vn -0.900242 -0.03050142 -0.4343202
vn -0.6720171 0.7293186 0.1284033
vn -0.9896023 0.02930303 -0.1408146
vn -0.7545721 -0.5106488 -0.4121394
vn -0.5449479 0.8371737 -0.0466041
vn -0.5449479 0.8371737 -0.0466041
vn -0.5415314 0.8217478 0.1774103
vn -0.9896023 0.02930303 -0.1408146
vn -0.9310796 0.3643312 -0.01880161
vn -0.6641325 0.7463365 -0.04370214
vn -0.8370669 -0.4648371 -0.288523
vn -0.4906203 0.8608357 -0.1351056
vn -0.8044774 -0.4924473 -0.332132
vn -0.6590552 0.7430623 0.1162097
vn -0.4432369 0.6629552 0.6033502
vn -0.4080481 0.568967 0.7139841
vn -0.6746446 -0.09070599 0.7325484
vn -0.740624 -0.2904094 0.6059197
vn -0.5148543 0.8567904 0.02890305
vn -0.5735763 -0.4932657 0.6539871
vn -0.4951329 0.3707246 0.7857523
vn -0.306832 0.555158 0.7730807
vn -0.306832 0.555158 0.7730807
vn -0.2710238 0.9149805 0.2989263
vn -0.6001489 0.4750387 0.6435524
vn 0.1730195 0.9697092 -0.1724194
vn -0.4693277 0.8328492 0.2934173
vn -0.5117579 0.574965 0.6383722
vn -0.05800431 0.5329396 0.8441628
vn -0.4518591 -0.2729357 0.8493112
vn -0.4518591 -0.2729357 0.8493112
vn -0.4432369 0.6629552 0.6033502
vn -0.3769335 -0.8567762 0.3519313
vn -0.306832 0.555158 0.7730807
vn -0.306832 0.555158 0.7730807
vn -0.0543032 0.5874347 0.8074476
vn -0.03910372 0.8687828 0.493647
vn -0.4518591 -0.2729357 0.8493112
vn -0.4518591 -0.2729357 0.8493112
vn -0.4511132 -0.04890143 0.891126
vn -0.1897188 0.9632953 0.1899188
vn -0.3989415 -0.6794707 0.615764
vn -0.2237096 0.8192351 0.5280226
vn -0.5392308 0.3201183 0.7789445
vn -0.3876477 -0.699486 0.6003738
vn -0.3354144 0.4745205 0.8138351
vn -0.2012092 0.5336245 0.8214377
vn -0.0543032 0.5874347 0.8074476
vn -0.4543369 0.8820716 0.1246101
vn 0.1839055 0.9811293 0.05970178
vn -0.1508148 0.8738859 0.4621454
vn 0.003100197 0.7346466 0.678443
vn -0.128006 0.8206386 0.5569263
vn -0.02600281 0.9504026 0.3099335
vn -0.1374089 -0.4732305 0.8701561
vn 0.08890183 0.9960206 0.00630013
vn 0.40853 0.8070593 0.4263313
vn -0.1950168 -0.1398121 0.9707837
vn -0.0983069 -0.3638255 0.926265
vn -0.6133698 0.5780658 0.5381612
vn -0.1641034 0.9738202 0.1573033
vn -0.06670664 0.9975993 0.01860185
vn -0.05360308 0.8832508 0.4658268
vn 0.04420134 0.7281221 0.6840208
vn 0.528135 0.8248547 0.2017134
vn -0.176017 0.9695939 0.1700165
vn -0.02770056 0.9485191 0.3155063
vn -0.2311229 0.7018694 0.6737666
vn -0.5560526 0.8274783 0.07800739
vn -0.3699371 0.5768578 0.728273
vn 0.06710644 0.9136877 0.4008385
vn -0.07350305 0.863236 0.4994208
vn 0.06590193 0.5221153 0.8503249
vn 0.4392201 0.5436248 0.7152327
vn 0.4765417 0.8743765 -0.09150801
vn 0.2659191 0.7850565 0.5594403
vn 0.1213104 0.9632828 0.2395206
vn 0.09660812 0.9830826 0.1556131
vn 0.2465247 0.239824 0.9389941
vn 0.2980294 -0.5745566 0.762275
vn -0.0543032 0.5874347 0.8074476
vn 0.2162187 -0.857774 0.4663402
vn 0.3208287 0.7219645 0.6130548
vn 0.3289217 -0.2775183 0.9026595
vn 0.3289217 -0.2775183 0.9026595
vn 0.309937 -0.08651033 0.946813
vn 0.3289217 -0.2775183 0.9026595
vn 0.3289217 -0.2775183 0.9026595
vn 0.1866078 0.5853245 0.7890329
vn 0.1866078 0.5853245 0.7890329
vn 0.304422 -0.469734 0.82866
vn 0.1354148 0.8936977 0.4277468
vn 0.1866078 0.5853245 0.7890329
vn 0.1866078 0.5853245 0.7890329
vn 0.4418412 -0.4389409 0.782373
vn -0.02710047 0.9758167 0.2169037
vn 0.4013207 0.9146472 -0.04860251
vn -0.2464201 0.5888482 0.7697629
vn 0.2169185 0.8757746 0.4312367
vn 0.6662454 -0.2629179 0.6978475
vn 0.9471132 0.1933231 -0.2561306
vn 0.5911184 0.802125 -0.08470265
vn 0.4032438 0.7132775 0.5732623
vn 0.7312341 -0.01630076 0.6819318
vn 0.3208287 0.7219645 0.6130548
vn 0.461427 0.6640389 0.5883345
vn 0.6112241 0.4473176 0.6529257
vn 0.6243627 0.5819585 0.5210524
vn 0.7956796 -0.5556556 0.2411241
vn 0.3208287 0.7219645 0.6130548
vn 0.4684329 0.8236578 0.3196224
vn 0.5104548 0.6961747 0.5047541
vn 0.6484258 -0.7420294 0.1701068
vn 0.8936592 -0.1224081 0.4317286
vn 0.8497773 0.1452132 0.5067461
vn 0.8936592 -0.1224081 0.4317286
vn 0.7844569 -0.3952287 0.4779347
vn 0.4189499 0.5993715 0.6820813
vn 0.5730337 0.7583446 0.3107183
vn 0.8353595 -0.4862347 0.2564183
vn 0.9328913 0.2834277 -0.2222217
vn 0.6206641 0.7668793 0.1633169
vn 0.4684329 0.8236578 0.3196224
vn 0.8619164 -0.473864 -0.1804244
vn 0.9939196 -0.0204004 0.1082021
vn 0.9887264 0.1343036 -0.06620177
vn 0.9939196 -0.0204004 0.1082021
vn 0.5730337 0.7583446 0.3107183
vn 0.8146794 0.5732559 0.08760855
vn 0.9930529 -0.05230279 -0.1054056
vn 0.9550919 0.249324 -0.1601154
vn 0.9941778 -0.04950388 0.0957075
vn 0.9788217 -0.1455032 -0.1440032
vn 0.9860286 -0.1269037 0.1079031
vn 0.5104548 0.6961747 0.5047541
vn 0.4684329 0.8236578 0.3196224
vn 0.5541441 0.7210575 0.4159332
vn 0.9744487 0.1779089 0.1371069
vn 0.5730337 0.7583446 0.3107183

vt 0.5256 0.9275
vt 0.5259 0.9668
vt 0.3454 0.8732001
vt 0.3454 0.8732001
vt -1.6415 0.63
vt 0.4563 1.5643
vt 0.3964 0.7102
vt 0.3978 0.9716001
vt 0.8262 1.2751
vt -1.524 0.5874
vt 0.5654 1.4514
vt 0.505 0.9275
vt 0.505 0.9668
vt 0.011 0.7102
vt 0.011 0.9716001
vt 0.5704 1.5673
vt 0.2588 0.7102
vt 0.2588 0.9716001
vt 0.1486 0.7102
vt 0.15 0.9716001
vt 0.7791 1.0233
vt 0.4403 1.4408
vt 0.7779 1.4498
vt -1.5314 0.5746
vt 0.3472 1.5909
vt 0.505 0.9668
vt 0.011 0.9716001
vt 0.3451 1.6704
vt 0.2588 0.7102
vt 0.2588 0.9716001
vt 0.2588 0.9716001
vt 0.15 0.9716001
vt 0.8655 1.0233
vt 0.3472 1.4971
vt -1.7239 0.5788
vt 0.3412 0.8151
vt 0.863 1.4498
vt -1.721 0.5664999
vt 0.3476 0.803
vt 0.3476 0.803
vt -1.4245 0.5127
vt 0.7445 1.2751
vt 0.8621 1.9796
vt 0.5911 1.3385
vt 0.4914 1.3385
vt 0.3964 0.7102
vt 0.3978 0.9716001
vt 0.8592 1.9691
vt 0.866 1.9643
vt 0.8471 1.9667
vt 0.8488 1.9818
vt 0.505 0.9275
vt 0.505 0.9668
vt 0.011 0.7102
vt 0.011 0.9716001
vt 0.2588 0.7102
vt 0.6941 1.3411
vt 0.2588 0.7102
vt 0.2588 0.9716001
vt 0.2588 0.9716001
vt 0.8535 1.9572
vt 0.1486 0.7102
vt 0.15 0.9716001
vt 0.7401 1.0233
vt 0.3472 1.4178
vt -1.4248 0.4171
vt 0.8557 1.9693
vt 0.8666 1.9685
vt 0.7458 1.4498
vt -1.4373 0.4131
vt 0.3601 0.9008
vt 0.3601 0.9008
vt 0.8625 1.971
vt 0.848 1.9647
vt 0.4193 1.3385
vt 0.8624 1.9575
vt 0.8678 1.9596
vt 0.8554 1.9676
vt 0.5654 1.2256
vt 0.8435 1.9755
vt 0.8551 1.9599
vt -1.3825 0.3358999
vt 0.7373 1.2751
vt 0.8689 1.9668
vt 0.8511 1.9792
vt 0.2541 1.4408
vt 0.858 1.9676
vt 0.8646 1.9566
vt 0.8503 1.9633
vt 0.8615 1.9839
vt 0.3472 1.3385
vt 0.872 1.9617
vt 0.8659 1.9725
vt 0.8668 1.9663
vt 0.8579 1.9703
vt 0.8586 1.9689
vt 0.4403 1.2361
vt 0.8577 1.962
vt 0.8474 1.9684
vt 0.8545 1.9575
vt 0.8447 1.9766
vt 0.2751 1.3385
vt -1.4512 0.2191
vt 0.7639 1.4498
vt 0.2588 0.7102
vt 0.5704 1.1149
vt 0.2588 0.9716001
vt 0.011 0.7102
vt 0.011 0.9716001
vt 0.7684 1.0233
vt 0.1486 0.7102
vt 0.15 0.9716001
vt 0.505 0.9275
vt 0.505 0.9668
vt -1.4344 0.2098
vt 0.3472 1.2592
vt 0.5256 0.9275
vt 0.5259 0.9668
vt 0.4563 1.1127
vt 0.8635 1.9806
vt 0.203 1.3385
vt 0.8675 1.9636
vt 0.8607 1.967
vt 0.8045 1.2751
vt 0.9607 1.2751
vt 0.8539 1.9658
vt 0.8589 1.9551
vt -1.5155 0.09959996
vt 0.3332 0.9013
vt 0.3332 0.9013
vt 0.3472 1.1799
vt -1.6112 0.1041
vt 0.8422 1.4498
vt 0.2588 0.8408999
vt 0.2588 0.8408999
vt 0.2588 0.8408999
vt 0.3451 1.0041
vt 0.011 0.8408999
vt 0.8422 1.0233
vt 0.1493 0.8408999
vt 0.3472 1.086
vt 0.505 0.9471
vt 0.505 0.9471
vt -1.6081 0.09140003
vt -1.9075 0.1575
vt 0.2541 1.2361
vt 0.2588 0.7102
vt 0.1198 1.1149
vt 0.011 0.7102
vt 0.9245 1.0233
vt 0.1486 0.7102
vt 0.505 0.9275
vt -1.7984 0.1003
vt 0.926 1.4498
vt 0.129 1.2256
vt 0.879 1.2751
vt -1.808 0.08290005
vt 0.2381 1.1127
vt 0.3971 0.8408999
vt 0.3363 0.7835
vt 0.3363 0.7835
vt -1.6905 0.0402
vt 0.5256 0.9275

f 14/14/14 27/27/27 19/19/19
f 27/27/27 32/32/32 19/19/19
f 15/15/15 20/20/20 54/54/54
f 54/54/54 20/20/20 62/62/62
f 26/26/26 1/1/1 12/12/12
f 8/8/8 3/3/3 30/30/30
f 24/24/24 5/5/5 10/10/10
f 11/11/11 6/6/6 16/16/16
f 22/22/22 6/6/6 11/11/11
f 4/4/4 17/17/17 31/31/31
f 10/10/10 5/5/5 35/35/35
f 6/6/6 28/28/28 16/16/16
f 34/34/34 6/6/6 22/22/22
f 5/5/5 24/24/24 38/38/38
f 9/9/9 21/21/21 33/33/33
f 6/6/6 25/25/25 28/28/28
f 34/34/34 25/25/25 6/6/6
f 23/23/23 9/9/9 37/37/37
f 36/36/36 7/7/7 29/29/29
f 41/41/41 24/24/24 10/10/10
f 2/2/2 52/52/52 13/13/13
f 42/42/42 21/21/21 9/9/9
f 23/23/23 42/42/42 9/9/9
f 22/22/22 11/11/11 45/45/45
f 11/11/11 16/16/16 57/57/57
f 45/45/45 11/11/11 44/44/44
f 18/18/18 39/39/39 56/56/56
f 65/65/65 34/34/34 22/22/22
f 66/66/66 41/41/41 10/10/10
f 42/42/42 64/64/64 21/21/21
f 41/41/41 70/70/70 24/24/24
f 44/44/44 11/11/11 57/57/57
f 69/69/69 42/42/42 23/23/23
f 75/75/75 22/22/22 45/45/45
f 40/40/40 46/46/46 58/58/58
f 43/43/43 49/49/49 48/48/48
f 50/50/50 43/43/43 48/48/48
f 65/65/65 22/22/22 75/75/75
f 49/49/49 61/61/61 48/48/48
f 61/61/61 50/50/50 48/48/48
f 45/45/45 44/44/44 79/79/79
f 47/47/47 71/71/71 59/59/59
f 65/65/65 86/86/86 34/34/34
f 79/79/79 44/44/44 57/57/57
f 83/83/83 64/64/64 42/42/42
f 82/82/82 41/41/41 66/66/66
f 82/82/82 70/70/70 41/41/41
f 51/51/51 68/68/68 67/67/67
f 83/83/83 42/42/42 69/69/69
f 74/74/74 51/51/51 67/67/67
f 68/68/68 76/76/76 67/67/67
f 76/76/76 74/74/74 67/67/67
f 73/73/73 77/77/77 78/78/78
f 75/75/75 45/45/45 97/97/97
f 80/80/80 73/73/73 78/78/78
f 91/91/91 65/65/65 75/75/75
f 45/45/45 79/79/79 97/97/97
f 77/77/77 81/81/81 78/78/78
f 81/81/81 80/80/80 78/78/78
f 72/72/72 105/105/105 60/60/60
f 55/55/55 63/63/63 108/108/108
f 108/108/108 63/63/63 111/111/111
f 85/85/85 84/84/84 87/87/87
f 79/79/79 57/57/57 106/106/106
f 84/84/84 88/88/88 87/87/87
f 83/83/83 110/110/110 64/64/64
f 89/89/89 85/85/85 87/87/87
f 102/102/102 86/86/86 65/65/65
f 82/82/82 103/103/103 70/70/70
f 104/104/104 83/83/83 69/69/69
f 115/115/115 82/82/82 66/66/66
f 88/88/88 89/89/89 87/87/87
f 91/91/91 102/102/102 65/65/65
f 91/91/91 75/75/75 116/116/116
f 90/90/90 94/94/94 95/95/95
f 93/93/93 92/92/92 96/96/96
f 99/99/99 90/90/90 95/95/95
f 75/75/75 97/97/97 116/116/116
f 92/92/92 98/98/98 96/96/96
f 101/101/101 93/93/93 96/96/96
f 94/94/94 100/100/100 95/95/95
f 53/53/53 117/117/117 113/113/113
f 100/100/100 99/99/99 95/95/95
f 98/98/98 101/101/101 96/96/96
f 97/97/97 79/79/79 119/119/119
f 103/103/103 82/82/82 115/115/115
f 119/119/119 79/79/79 106/106/106
f 91/91/91 116/116/116 102/102/102
f 102/102/102 121/121/121 86/86/86
f 104/104/104 124/124/124 83/83/83
f 124/124/124 110/110/110 83/83/83
f 116/116/116 97/97/97 131/131/131
f 97/97/97 119/119/119 131/131/131
f 128/128/128 103/103/103 115/115/115
f 116/116/116 146/146/146 102/102/102
f 119/119/119 106/106/106 137/137/137
f 118/118/118 142/142/142 114/114/114
f 102/102/102 146/146/146 121/121/121
f 133/133/133 124/124/124 104/104/104
f 124/124/124 139/139/139 110/110/110
f 120/120/120 122/122/122 123/123/123
f 128/128/128 132/132/132 103/103/103
f 107/107/107 129/129/129 134/134/134
f 126/126/126 120/120/120 123/123/123
f 144/144/144 128/128/128 115/115/115
f 122/122/122 127/127/127 123/123/123
f 116/116/116 131/131/131 146/146/146
f 131/131/131 119/119/119 141/141/141
f 141/141/141 119/119/119 137/137/137
f 127/127/127 126/126/126 123/123/123
f 146/146/146 155/155/155 121/121/121
f 156/156/156 124/124/124 133/133/133
f 156/156/156 139/139/139 124/124/124
f 125/125/125 150/150/150 156/156/156
f 154/154/154 125/125/125 156/156/156
f 131/131/131 141/141/141 158/158/158
f 130/130/130 159/159/159 136/136/136
f 162/162/162 132/132/132 128/128/128
f 158/158/158 141/141/141 137/137/137
f 156/156/156 150/150/150 139/139/139
f 131/131/131 158/158/158 146/146/146
f 154/154/154 156/156/156 133/133/133
f 162/162/162 128/128/128 144/144/144
f 158/158/158 137/137/137 148/148/148
f 160/160/160 147/147/147 135/135/135
f 162/162/162 153/153/153 132/132/132
f 146/146/146 158/158/158 155/155/155
f 155/155/155 158/158/158 148/148/148
f 145/145/145 153/153/153 162/162/162
f 143/143/143 163/163/163 152/152/152
f 159/159/159 161/161/161 136/136/136
f 157/157/157 162/162/162 144/144/144
f 157/157/157 145/145/145 162/162/162
f 138/138/138 109/109/109 140/140/140
f 109/109/109 112/112/112 140/140/140
f 149/149/149 138/138/138 151/151/151
f 138/138/138 140/140/140 151/151/151

