# Exported by BFBB JSP Tool
mtllib [63883E71] fx_splash_ring.MTL

g obj_fountain
usemtl fountain_m

v 0.554 0.4714 -0.554
v 0.554 0.4714 -0.554
v -0.0042 0.4191 -0.7286
v -0.554 0.4714 -0.554
v -0.7836 0.4714 0
v -0.5118 0.4134 0.5244
v 0 0.4714 0.8047
v 0.5836 0.5377 0.5752
v 0.7328 0.4714 0
v 0.3562 0.2571 -0.3562
v 0.3562 0.2571 -0.3562
v 0 0.2571 -0.5038
v -0.3562 0.2571 -0.3562
v -0.5038 0.2571 0
v -0.3562 0.2571 0.3562
v 0 0.2571 0.5038
v 0.3562 0.2571 0.3562
v 0.5038 0.2571 0
v 0.2869 0.1514 -0.2869
v 0.2869 0.1514 -0.2869
v 0 0.1514 -0.4057
v -0.2869 0.1514 -0.2869
v -0.4057 0.1514 0
v -0.2869 0.1514 0.2869
v 0 0.1514 0.4057
v 0.2869 0.1514 0.2869
v 0.4057 0.1514 0
v 0.2556 0.0553 -0.2556
v 0.2556 0.0553 -0.2556
v 0 0.0553 -0.3615
v -0.2556 0.0553 -0.2556
v -0.3615 0.0553 0
v -0.2556 0.0553 0.2556
v 0 0.0553 0.3615
v 0.2556 0.0553 0.2556
v 0.3615 0.0553 0
v 0.2581 0.0027 -0.2581
v 0.2581 0.0027 -0.2581
v 0 0.0027 -0.3651
v -0.2581 0.0027 -0.2581
v -0.3651 0.0027 0
v -0.2581 0.0027 0.2581
v 0 0.0027 0.3651
v 0.2581 0.0027 0.2581
v 0.3651 0.0027 0

vn 0.4577 -0.7848 -0.4176
vn 0.4577 -0.7848 -0.4176
vn -0.0006 -0.8034 -0.5953
vn -0.4319 -0.7973 -0.4216
vn -0.6016 -0.7986 -0.0101
vn -0.4134 -0.8161 0.4037
vn 0.0352 -0.8034 0.5943
vn 0.4852 -0.7569 0.4376
vn 0.6629 -0.7484 0.0156
vn 0.4894 -0.735 -0.4692
vn 0.4894 -0.735 -0.4692
vn -0.0003 -0.7454 -0.6665
vn -0.4765 -0.742 -0.4713
vn -0.6694 -0.7428 -0.0051
vn -0.468 -0.7526 0.4631
vn 0.0178 -0.7454 0.6662
vn 0.5024 -0.72 0.4785
vn 0.6985 -0.7154 0.0078
vn 0.587 -0.5574 -0.587
vn 0.587 -0.5574 -0.587
vn 0 -0.5574 -0.8301
vn -0.587 -0.5574 -0.587
vn -0.8301 -0.5574 0
vn -0.587 -0.5574 0.587
vn 0 -0.5574 0.8301
vn 0.587 -0.5574 0.587
vn 0.8301 -0.5574 0
vn 0.6952 -0.1823 -0.6952
vn 0.6952 -0.1823 -0.6952
vn 0 -0.1823 -0.9832
vn -0.6952 -0.1823 -0.6952
vn -0.9832 -0.1823 0
vn -0.6952 -0.1823 0.6952
vn 0 -0.1823 0.9832
vn 0.6952 -0.1823 0.6952
vn 0.9832 -0.1823 0
vn 0.7055 0.0673 -0.7055
vn 0.7055 0.0673 -0.7055
vn 0 0.0673 -0.9977
vn -0.7055 0.0673 -0.7055
vn -0.9977 0.0673 0
vn -0.7055 0.0673 0.7055
vn 0 0.0673 0.9977
vn 0.7055 0.0673 0.7055
vn 0.9977 0.0673 0

vc 213 213 213 0
vc 213 213 213 0
vc 213 213 213 0
vc 213 213 213 0
vc 213 213 213 0
vc 213 213 213 0
vc 213 213 213 0
vc 213 213 213 0
vc 213 213 213 0
vc 213 213 213 255
vc 213 213 213 255
vc 213 213 213 255
vc 213 213 213 255
vc 213 213 213 255
vc 213 213 213 255
vc 213 213 213 255
vc 213 213 213 255
vc 213 213 213 255
vc 213 213 213 255
vc 213 213 213 255
vc 213 213 213 255
vc 213 213 213 255
vc 213 213 213 255
vc 213 213 213 255
vc 213 213 213 255
vc 213 213 213 255
vc 213 213 213 255
vc 213 213 213 255
vc 213 213 213 255
vc 213 213 213 255
vc 213 213 213 255
vc 213 213 213 255
vc 213 213 213 255
vc 213 213 213 255
vc 213 213 213 255
vc 213 213 213 255
vc 213 213 213 0
vc 213 213 213 0
vc 213 213 213 0
vc 213 213 213 0
vc 213 213 213 0
vc 213 213 213 0
vc 213 213 213 0
vc 213 213 213 0
vc 213 213 213 0

vt -0.998 1.9633
vt 0.9954 1.9633
vt -0.7531 1.9633
vt -0.5025 1.9633
vt -0.2519 1.9633
vt -0.0013 1.9633
vt 0.2492 1.9633
vt 0.4999 1.9633
vt 0.7505 1.9633
vt -0.998 1.7953
vt 0.9954 1.7953
vt -0.7531 1.7953
vt -0.5025 1.7953
vt -0.2519 1.7953
vt -0.0013 1.7953
vt 0.2492 1.7953
vt 0.4999 1.7953
vt 0.7505 1.7953
vt -0.998 1.46
vt 0.9954 1.46
vt -0.7531 1.46
vt -0.5025 1.46
vt -0.2519 1.46
vt -0.0013 1.46
vt 0.2492 1.46
vt 0.4999 1.46
vt 0.7505 1.46
vt -0.998 1.1282
vt 0.9954 1.1282
vt -0.7531 1.1282
vt -0.5025 1.1282
vt -0.2519 1.1282
vt -0.0013 1.1282
vt 0.2492 1.1282
vt 0.4999 1.1282
vt 0.7505 1.1282
vt -0.998 0.9525
vt 0.9954 0.9525
vt -0.7531 0.9525
vt -0.5025 0.9525
vt -0.2519 0.9525
vt -0.0013 0.9525
vt 0.2492 0.9525
vt 0.4999 0.9525
vt 0.7505 0.9525

f 1/1/1 10/10/10 3/3/3
f 3/3/3 10/10/10 12/12/12
f 4/4/4 3/3/3 13/13/13
f 3/3/3 12/12/12 13/13/13
f 5/5/5 4/4/4 14/14/14
f 4/4/4 13/13/13 14/14/14
f 5/5/5 14/14/14 6/6/6
f 6/6/6 14/14/14 15/15/15
f 7/7/7 6/6/6 16/16/16
f 6/6/6 15/15/15 16/16/16
f 8/8/8 7/7/7 17/17/17
f 7/7/7 16/16/16 17/17/17
f 8/8/8 17/17/17 9/9/9
f 9/9/9 17/17/17 18/18/18
f 9/9/9 18/18/18 2/2/2
f 2/2/2 18/18/18 11/11/11
f 12/12/12 10/10/10 21/21/21
f 10/10/10 19/19/19 21/21/21
f 13/13/13 12/12/12 22/22/22
f 12/12/12 21/21/21 22/22/22
f 14/14/14 13/13/13 23/23/23
f 13/13/13 22/22/22 23/23/23
f 15/15/15 14/14/14 24/24/24
f 14/14/14 23/23/23 24/24/24
f 16/16/16 15/15/15 25/25/25
f 15/15/15 24/24/24 25/25/25
f 17/17/17 16/16/16 26/26/26
f 16/16/16 25/25/25 26/26/26
f 18/18/18 17/17/17 27/27/27
f 17/17/17 26/26/26 27/27/27
f 18/18/18 27/27/27 11/11/11
f 11/11/11 27/27/27 20/20/20
f 21/21/21 19/19/19 30/30/30
f 19/19/19 28/28/28 30/30/30
f 22/22/22 21/21/21 31/31/31
f 21/21/21 30/30/30 31/31/31
f 23/23/23 22/22/22 32/32/32
f 22/22/22 31/31/31 32/32/32
f 24/24/24 23/23/23 33/33/33
f 23/23/23 32/32/32 33/33/33
f 25/25/25 24/24/24 34/34/34
f 24/24/24 33/33/33 34/34/34
f 26/26/26 25/25/25 35/35/35
f 25/25/25 34/34/34 35/35/35
f 27/27/27 26/26/26 36/36/36
f 26/26/26 35/35/35 36/36/36
f 20/20/20 27/27/27 29/29/29
f 27/27/27 36/36/36 29/29/29
f 37/37/37 39/39/39 28/28/28
f 30/30/30 28/28/28 39/39/39
f 39/39/39 40/40/40 30/30/30
f 31/31/31 30/30/30 40/40/40
f 40/40/40 41/41/41 31/31/31
f 32/32/32 31/31/31 41/41/41
f 41/41/41 42/42/42 32/32/32
f 33/33/33 32/32/32 42/42/42
f 42/42/42 43/43/43 33/33/33
f 34/34/34 33/33/33 43/43/43
f 43/43/43 44/44/44 34/34/34
f 35/35/35 34/34/34 44/44/44
f 44/44/44 45/45/45 35/35/35
f 36/36/36 35/35/35 45/45/45
f 45/45/45 38/38/38 36/36/36
f 29/29/29 36/36/36 38/38/38

