# Exported by BFBB JSP Tool
mtllib [7C134517] ManlinessRed.MTL

g obj_pickups_manliness_1
usemtl pickups_manliness_1_m

v -0.3158417 -0.1688 3.804686E-05
v -0.3158417 -0.1688 3.804686E-05
v -0.3158417 -0.1194 -0.119362
v -0.3158417 -0.1194 -0.119362
v -0.3158417 -0.1194 0.1193381
v -0.3158417 -0.1194 0.1193381
v -0.3158417 7.450581E-09 -0.168862
v -0.3158417 7.450581E-09 -0.168862
v -0.3158417 7.450581E-09 0.1688381
v -0.3158417 7.450581E-09 0.1688381
v -0.3158417 0.1194 -0.119362
v -0.3158417 0.1194 -0.119362
v -0.3158417 0.1194 -0.119362
v -0.3158417 0.1194 0.1193381
v -0.3158417 0.1194 0.1193381
v -0.3158417 0.1688 3.804686E-05
v -0.3158417 0.1688 3.804686E-05
v -0.2201416 -0.03749999 -0.01216195
v -0.2201416 -0.02309999 0.03183804
v -0.2201416 7.450581E-09 -0.03936195
v -0.2201416 0.02310001 0.03183804
v -0.2201416 0.03750001 -0.01216195
v -0.2201416 0.03750001 -0.01216195
v -0.1734416 -0.1688 3.804686E-05
v -0.1734416 -0.1688 3.804686E-05
v -0.1734416 -0.1194 -0.119362
v -0.1734416 -0.1194 -0.119362
v -0.1734416 -0.1194 0.1193381
v -0.1734416 -0.1194 0.1193381
v -0.1734416 7.450581E-09 -0.168862
v -0.1734416 7.450581E-09 -0.168862
v -0.1734416 7.450581E-09 0.1688381
v -0.1734416 7.450581E-09 0.1688381
v -0.1734416 0.1194 -0.119362
v -0.1734416 0.1194 -0.119362
v -0.1734416 0.1194 -0.119362
v -0.1734416 0.1194 0.1193381
v -0.1734416 0.1194 0.1193381
v -0.1734416 0.1688 3.804686E-05
v -0.1734416 0.1688 3.804686E-05
v 0.1735584 -0.1688 3.804686E-05
v 0.1735584 -0.1688 3.804686E-05
v 0.1735584 -0.1194 -0.119362
v 0.1735584 -0.1194 -0.119362
v 0.1735584 -0.1194 0.1193381
v 0.1735584 -0.1194 0.1193381
v 0.1735584 7.450581E-09 -0.168862
v 0.1735584 7.450581E-09 -0.168862
v 0.1735584 7.450581E-09 0.1688381
v 0.1735584 7.450581E-09 0.1688381
v 0.1735584 0.1194 -0.119362
v 0.1735584 0.1194 -0.119362
v 0.1735584 0.1194 -0.119362
v 0.1735584 0.1194 0.1193381
v 0.1735584 0.1194 0.1193381
v 0.1735584 0.1688 3.804686E-05
v 0.1735584 0.1688 3.804686E-05
v 0.2043583 -0.03749999 -0.01216195
v 0.2043583 -0.02309999 0.03183804
v 0.2043583 7.450581E-09 -0.03936195
v 0.2043583 0.02310001 0.03183804
v 0.2043583 0.03750001 -0.01216195
v 0.2043583 0.03750001 -0.01216195
v 0.3158584 -0.1688 3.804686E-05
v 0.3158584 -0.1688 3.804686E-05
v 0.3158584 -0.1194 -0.119362
v 0.3158584 -0.1194 -0.119362
v 0.3158584 -0.1194 0.1193381
v 0.3158584 -0.1194 0.1193381
v 0.3158584 7.450581E-09 -0.168862
v 0.3158584 7.450581E-09 -0.168862
v 0.3158584 7.450581E-09 0.1688381
v 0.3158584 7.450581E-09 0.1688381
v 0.3158584 0.1194 -0.119362
v 0.3158584 0.1194 -0.119362
v 0.3158584 0.1194 -0.119362
v 0.3158584 0.1194 0.1193381
v 0.3158584 0.1194 0.1193381
v 0.3158584 0.1688 3.804686E-05
v 0.3158584 0.1688 3.804686E-05

vn -0.4759416 -0.8794768 0
vn -0.4759416 -0.8794768 0
vn -0.7345344 -0.4798225 -0.4798225
vn -0.7345344 -0.4798225 -0.4798225
vn -0.7345344 -0.4798225 0.4798225
vn -0.7345344 -0.4798225 0.4798225
vn -0.7345542 0 -0.6785501
vn -0.7345542 0 -0.6785501
vn -0.7345542 0 0.6785501
vn -0.7345542 0 0.6785501
vn -0.7345344 0.4798225 -0.4798225
vn -0.7345344 0.4798225 -0.4798225
vn -0.7345344 0.4798225 -0.4798225
vn -0.7345344 0.4798225 0.4798225
vn -0.7345344 0.4798225 0.4798225
vn -0.4759416 0.8794768 0
vn -0.4759416 0.8794768 0
vn 0 -0.9510561 -0.3090182
vn 0 -0.5877376 0.8090517
vn 0 0 -1
vn 0 0.5877376 0.8090517
vn 0 0.9510561 -0.3090182
vn 0 0.9510561 -0.3090182
vn 0.4759416 -0.8794768 0
vn 0.4759416 -0.8794768 0
vn 0.7345344 -0.4798225 -0.4798225
vn 0.7345344 -0.4798225 -0.4798225
vn 0.7345344 -0.4798225 0.4798225
vn 0.7345344 -0.4798225 0.4798225
vn 0.7345542 0 -0.6785501
vn 0.7345542 0 -0.6785501
vn 0.7345542 0 0.6785501
vn 0.7345542 0 0.6785501
vn 0.7345344 0.4798225 -0.4798225
vn 0.7345344 0.4798225 -0.4798225
vn 0.7345344 0.4798225 -0.4798225
vn 0.7345344 0.4798225 0.4798225
vn 0.7345344 0.4798225 0.4798225
vn 0.4759416 0.8794768 0
vn 0.4759416 0.8794768 0
vn -0.4759416 -0.8794768 0
vn -0.4759416 -0.8794768 0
vn -0.7345344 -0.4798225 -0.4798225
vn -0.7345344 -0.4798225 -0.4798225
vn -0.7345344 -0.4798225 0.4798225
vn -0.7345344 -0.4798225 0.4798225
vn -0.7345542 0 -0.6785501
vn -0.7345542 0 -0.6785501
vn -0.7345542 0 0.6785501
vn -0.7345542 0 0.6785501
vn -0.7345344 0.4798225 -0.4798225
vn -0.7345344 0.4798225 -0.4798225
vn -0.7345344 0.4798225 -0.4798225
vn -0.7345344 0.4798225 0.4798225
vn -0.7345344 0.4798225 0.4798225
vn -0.4759416 0.8794768 0
vn -0.4759416 0.8794768 0
vn 0 -0.9510561 -0.3090182
vn 0 -0.5877376 0.8090517
vn 0 0 -1
vn 0 0.5877376 0.8090517
vn 0 0.9510561 -0.3090182
vn 0 0.9510561 -0.3090182
vn 0.4759416 -0.8794768 0
vn 0.4759416 -0.8794768 0
vn 0.7345344 -0.4798225 -0.4798225
vn 0.7345344 -0.4798225 -0.4798225
vn 0.7345344 -0.4798225 0.4798225
vn 0.7345344 -0.4798225 0.4798225
vn 0.7345542 0 -0.6785501
vn 0.7345542 0 -0.6785501
vn 0.7345542 0 0.6785501
vn 0.7345542 0 0.6785501
vn 0.7345344 0.4798225 -0.4798225
vn 0.7345344 0.4798225 -0.4798225
vn 0.7345344 0.4798225 -0.4798225
vn 0.7345344 0.4798225 0.4798225
vn 0.7345344 0.4798225 0.4798225
vn 0.4759416 0.8794768 0
vn 0.4759416 0.8794768 0

vt -0.9962 0.6403
vt -0.4099 1.8478
vt -0.9962 0.7951
vt -0.698 1.7314
vt -0.9962 0.4855
vt -0.113 1.7197
vt -0.9962 0.9499
vt -0.7993 1.4286
vt -0.9962 0.3307
vt -0.0156 1.4286
vt -0.9962 -0.1337
vt -0.9962 1.1046
vt -0.698 1.1379
vt -0.9962 0.1759
vt -0.1295 1.1327
vt -0.9962 0.02109998
vt -0.4099 1.0134
vt 0.2046 0.9346
vt 0.2046 0.9926
vt 0.2046 0.8765
vt 0.2046 0.9344
vt 0.2046 0.8763
vt 0.2046 0.9345
vt -0.8146 0.6403
vt -0.2241 1.7017
vt -0.8146 0.7951
vt -0.1311 1.6071
vt -0.8146 0.4855
vt -0.3143 1.6157
vt -0.8146 0.9499
vt -0.1006 1.3923
vt -0.8146 0.3307
vt -0.346 1.3923
vt -0.8146 -0.1337
vt -0.8146 1.1046
vt -0.1363 1.174
vt -0.8146 0.1759
vt -0.3143 1.1778
vt -0.8146 0.02109998
vt -0.2241 1.0859
vt -0.9962 0.8269
vt -0.2241 1.7017
vt -0.9962 0.9817
vt -0.3143 1.6157
vt -0.9962 0.6721
vt -0.1311 1.6071
vt -0.9962 1.1364
vt -0.346 1.3923
vt -0.9962 0.5173
vt -0.1006 1.3923
vt -0.9962 0.05290002
vt -0.9962 1.2912
vt -0.3143 1.1778
vt -0.9962 0.3625
vt -0.1363 1.174
vt -0.9962 0.2077
vt -0.2241 1.0859
vt 1.0058 0.9346
vt 1.0058 0.9926
vt 1.0058 0.8765
vt 1.0058 0.9344
vt 1.0058 0.8763
vt 1.0058 0.9345
vt -0.8146 0.8269
vt -0.4099 1.8478
vt -0.8146 0.9817
vt -0.113 1.7197
vt -0.8146 0.6721
vt -0.698 1.7314
vt -0.8146 1.1364
vt -0.0156 1.4286
vt -0.8146 0.5173
vt -0.7993 1.4286
vt -0.8146 0.05290002
vt -0.8146 1.2912
vt -0.1295 1.1327
vt -0.8146 0.3625
vt -0.698 1.1379
vt -0.8146 0.2077
vt -0.4099 1.0134

f 10/10/10 8/8/8 6/6/6
f 4/4/4 6/6/6 8/8/8
f 8/8/8 10/10/10 13/13/13
f 15/15/15 13/13/13 10/10/10
f 1/1/1 3/3/3 24/24/24
f 3/3/3 26/26/26 24/24/24
f 5/5/5 1/1/1 28/28/28
f 1/1/1 24/24/24 28/28/28
f 9/9/9 5/5/5 32/32/32
f 5/5/5 28/28/28 32/32/32
f 3/3/3 7/7/7 26/26/26
f 7/7/7 30/30/30 26/26/26
f 7/7/7 12/12/12 30/30/30
f 12/12/12 35/35/35 30/30/30
f 14/14/14 9/9/9 37/37/37
f 9/9/9 32/32/32 37/37/37
f 11/11/11 16/16/16 34/34/34
f 16/16/16 39/39/39 34/34/34
f 16/16/16 14/14/14 39/39/39
f 14/14/14 37/37/37 39/39/39
f 4/4/4 2/2/2 6/6/6
f 15/15/15 17/17/17 13/13/13
f 33/33/33 29/29/29 31/31/31
f 29/29/29 27/27/27 31/31/31
f 33/33/33 31/31/31 38/38/38
f 31/31/31 36/36/36 38/38/38
f 27/27/27 29/29/29 25/25/25
f 38/38/38 36/36/36 40/40/40
f 19/19/19 18/18/18 59/59/59
f 18/18/18 58/58/58 59/59/59
f 18/18/18 20/20/20 58/58/58
f 20/20/20 60/60/60 58/58/58
f 21/21/21 19/19/19 61/61/61
f 19/19/19 59/59/59 61/61/61
f 20/20/20 23/23/23 60/60/60
f 23/23/23 63/63/63 60/60/60
f 22/22/22 21/21/21 62/62/62
f 21/21/21 61/61/61 62/62/62
f 44/44/44 42/42/42 46/46/46
f 55/55/55 57/57/57 53/53/53
f 50/50/50 48/48/48 46/46/46
f 44/44/44 46/46/46 48/48/48
f 48/48/48 50/50/50 53/53/53
f 55/55/55 53/53/53 50/50/50
f 67/67/67 69/69/69 65/65/65
f 78/78/78 76/76/76 80/80/80
f 41/41/41 43/43/43 64/64/64
f 43/43/43 66/66/66 64/64/64
f 45/45/45 41/41/41 68/68/68
f 41/41/41 64/64/64 68/68/68
f 49/49/49 45/45/45 72/72/72
f 45/45/45 68/68/68 72/72/72
f 43/43/43 47/47/47 66/66/66
f 47/47/47 70/70/70 66/66/66
f 47/47/47 52/52/52 70/70/70
f 52/52/52 75/75/75 70/70/70
f 54/54/54 49/49/49 77/77/77
f 49/49/49 72/72/72 77/77/77
f 51/51/51 56/56/56 74/74/74
f 56/56/56 79/79/79 74/74/74
f 56/56/56 54/54/54 79/79/79
f 54/54/54 77/77/77 79/79/79
f 73/73/73 69/69/69 71/71/71
f 69/69/69 67/67/67 71/71/71
f 73/73/73 71/71/71 78/78/78
f 71/71/71 76/76/76 78/78/78

