# Exported by BFBB JSP Tool
mtllib [A4E0CB38] fx_vissplash_wave.MTL

g obj_fountain
usemtl fountain_m

v -0.7836 0.4714 0
v -0.554 0.4714 -0.554
v -0.5118 0.4134 0.5244
v -0.5038 0.2571 0
v -0.4057 0.1514 0
v -0.3651 0.0027 0
v -0.3615 0.0553 0
v -0.3562 0.2571 -0.3562
v -0.3562 0.2571 0.3562
v -0.2869 0.1514 -0.2869
v -0.2869 0.1514 0.2869
v -0.2581 0.0027 -0.2581
v -0.2581 0.0027 0.2581
v -0.2556 0.0553 -0.2556
v -0.2556 0.0553 0.2556
v -0.0042 0.4191 -0.7286
v 0 0.0027 -0.3651
v 0 0.0027 0.3651
v 0 0.0553 -0.3615
v 0 0.0553 0.3615
v 0 0.1514 -0.4057
v 0 0.1514 0.4057
v 0 0.2571 -0.5038
v 0 0.2571 0.5038
v 0 0.4714 0.8047
v 0.2556 0.0553 -0.2556
v 0.2556 0.0553 -0.2556
v 0.2556 0.0553 0.2556
v 0.2581 0.0027 -0.2581
v 0.2581 0.0027 -0.2581
v 0.2581 0.0027 0.2581
v 0.2869 0.1514 -0.2869
v 0.2869 0.1514 -0.2869
v 0.2869 0.1514 0.2869
v 0.3562 0.2571 -0.3562
v 0.3562 0.2571 -0.3562
v 0.3562 0.2571 0.3562
v 0.3615 0.0553 0
v 0.3651 0.0027 0
v 0.4057 0.1514 0
v 0.5038 0.2571 0
v 0.554 0.4714 -0.554
v 0.554 0.4714 -0.554
v 0.5836 0.5377 0.5752
v 0.7328 0.4714 0

vn -0.6016642 -0.7986853 -0.01010108
vn -0.4319062 -0.7973114 -0.421606
vn -0.4134222 -0.8161439 0.4037217
vn -0.6694421 -0.7428467 -0.005100321
vn -0.8301993 -0.5574667 0
vn -0.9977326 0.0673022 0
vn -0.9832415 -0.1823077 0
vn -0.476562 -0.7420965 -0.4713613
vn -0.4680252 -0.7526405 0.4631249
vn -0.5870491 -0.5574467 -0.5870491
vn -0.5870491 -0.5574467 0.5870491
vn -0.7055036 0.06730034 -0.7055036
vn -0.7055036 0.06730034 0.7055036
vn -0.6952559 -0.1823146 -0.6952559
vn -0.6952559 -0.1823146 0.6952559
vn -0.0006000499 -0.8034667 -0.5953495
vn 0 0.0673022 -0.9977327
vn 0 0.0673022 0.9977327
vn 0 -0.1823077 -0.9832415
vn 0 -0.1823077 0.9832415
vn 0 -0.5574667 -0.8301994
vn 0 -0.5574667 0.8301994
vn -0.0003000235 -0.7454584 -0.6665522
vn 0.01780213 -0.7454893 0.6662798
vn 0.03520206 -0.803447 0.5943348
vn 0.6952559 -0.1823146 -0.6952559
vn 0.6952559 -0.1823146 -0.6952559
vn 0.6952559 -0.1823146 0.6952559
vn 0.7055036 0.06730034 -0.7055036
vn 0.7055036 0.06730034 -0.7055036
vn 0.7055036 0.06730034 0.7055036
vn 0.5870491 -0.5574467 -0.5870491
vn 0.5870491 -0.5574467 -0.5870491
vn 0.5870491 -0.5574467 0.5870491
vn 0.4894279 -0.7350419 -0.4692267
vn 0.4894279 -0.7350419 -0.4692267
vn 0.5024583 -0.7200835 0.4785555
vn 0.9832415 -0.1823077 0
vn 0.9977326 0.0673022 0
vn 0.8301993 -0.5574667 0
vn 0.6985838 -0.7154858 0.007800935
vn 0.4577481 -0.7848824 -0.4176439
vn 0.4577481 -0.7848824 -0.4176439
vn 0.485246 -0.7569718 0.4376415
vn 0.6629722 -0.7484815 0.0156017

vc 233 233 233 0
vc 233 233 233 0
vc 233 233 233 0
vc 233 233 233 255
vc 233 233 233 255
vc 233 233 233 0
vc 233 233 233 255
vc 233 233 233 255
vc 233 233 233 255
vc 233 233 233 255
vc 233 233 233 255
vc 233 233 233 0
vc 233 233 233 0
vc 233 233 233 255
vc 233 233 233 255
vc 233 233 233 0
vc 233 233 233 0
vc 233 233 233 0
vc 233 233 233 255
vc 233 233 233 255
vc 233 233 233 255
vc 233 233 233 255
vc 233 233 233 255
vc 233 233 233 255
vc 233 233 233 0
vc 233 233 233 255
vc 233 233 233 255
vc 233 233 233 255
vc 233 233 233 0
vc 233 233 233 0
vc 233 233 233 0
vc 233 233 233 255
vc 233 233 233 255
vc 233 233 233 255
vc 233 233 233 255
vc 233 233 233 255
vc 233 233 233 255
vc 233 233 233 255
vc 233 233 233 0
vc 233 233 233 255
vc 233 233 233 255
vc 233 233 233 0
vc 233 233 233 0
vc 233 233 233 0
vc 233 233 233 0

vt 0.1056 0.2347
vt -0.3096 0.2347
vt 0.5419 0.2347
vt 0.1056 -0.256
vt 0.1056 -0.5481
vt 0.1056 -0.9815
vt 0.1056 -0.7668
vt -0.3096 -0.256
vt 0.5419 -0.256
vt -0.3096 -0.5481
vt 0.5419 -0.5481
vt -0.3096 -0.9815
vt 0.5419 -0.9815
vt -0.3096 -0.7668
vt 0.5419 -0.7668
vt -0.6725 0.2347
vt -0.6725 -0.9815
vt 0.8943 -0.9815
vt -0.6725 -0.7668
vt 0.8943 -0.7668
vt -0.6725 -0.5481
vt 0.8943 -0.5481
vt -0.6725 -0.256
vt 0.8943 -0.256
vt 0.8943 0.2347
vt -0.9999 -0.7668
vt 1.9999 -0.7668
vt 1.2782 -0.7668
vt -0.9999 -0.9815
vt 1.9999 -0.9815
vt 1.2782 -0.9815
vt -0.9999 -0.5481
vt 1.9999 -0.5481
vt 1.2782 -0.5481
vt -0.9999 -0.256
vt 1.9999 -0.256
vt 1.2782 -0.256
vt 1.6201 -0.7668
vt 1.6201 -0.9815
vt 1.6201 -0.5481
vt 1.6201 -0.256
vt -0.9999 0.2347
vt 1.9999 0.2347
vt 1.2782 0.2347
vt 1.6201 0.2347

f 1/1/1 2/2/2 4/4/4
f 2/2/2 8/8/8 4/4/4
f 1/1/1 4/4/4 3/3/3
f 3/3/3 4/4/4 9/9/9
f 4/4/4 8/8/8 5/5/5
f 8/8/8 10/10/10 5/5/5
f 9/9/9 4/4/4 11/11/11
f 4/4/4 5/5/5 11/11/11
f 5/5/5 10/10/10 7/7/7
f 10/10/10 14/14/14 7/7/7
f 11/11/11 5/5/5 15/15/15
f 5/5/5 7/7/7 15/15/15
f 12/12/12 6/6/6 14/14/14
f 7/7/7 14/14/14 6/6/6
f 6/6/6 13/13/13 7/7/7
f 15/15/15 7/7/7 13/13/13
f 2/2/2 16/16/16 8/8/8
f 16/16/16 23/23/23 8/8/8
f 25/25/25 3/3/3 24/24/24
f 3/3/3 9/9/9 24/24/24
f 8/8/8 23/23/23 10/10/10
f 23/23/23 21/21/21 10/10/10
f 24/24/24 9/9/9 22/22/22
f 9/9/9 11/11/11 22/22/22
f 10/10/10 21/21/21 14/14/14
f 21/21/21 19/19/19 14/14/14
f 22/22/22 11/11/11 20/20/20
f 11/11/11 15/15/15 20/20/20
f 17/17/17 12/12/12 19/19/19
f 14/14/14 19/19/19 12/12/12
f 13/13/13 18/18/18 15/15/15
f 20/20/20 15/15/15 18/18/18
f 29/29/29 17/17/17 26/26/26
f 19/19/19 26/26/26 17/17/17
f 18/18/18 31/31/31 20/20/20
f 28/28/28 20/20/20 31/31/31
f 21/21/21 32/32/32 19/19/19
f 32/32/32 26/26/26 19/19/19
f 34/34/34 22/22/22 28/28/28
f 22/22/22 20/20/20 28/28/28
f 23/23/23 35/35/35 21/21/21
f 35/35/35 32/32/32 21/21/21
f 37/37/37 24/24/24 34/34/34
f 24/24/24 22/22/22 34/34/34
f 42/42/42 35/35/35 16/16/16
f 16/16/16 35/35/35 23/23/23
f 44/44/44 25/25/25 37/37/37
f 25/25/25 24/24/24 37/37/37
f 39/39/39 30/30/30 38/38/38
f 27/27/27 38/38/38 30/30/30
f 31/31/31 39/39/39 28/28/28
f 38/38/38 28/28/28 39/39/39
f 33/33/33 40/40/40 27/27/27
f 40/40/40 38/38/38 27/27/27
f 40/40/40 34/34/34 38/38/38
f 34/34/34 28/28/28 38/38/38
f 41/41/41 40/40/40 36/36/36
f 36/36/36 40/40/40 33/33/33
f 41/41/41 37/37/37 40/40/40
f 37/37/37 34/34/34 40/40/40
f 45/45/45 41/41/41 43/43/43
f 43/43/43 41/41/41 36/36/36
f 44/44/44 37/37/37 45/45/45
f 45/45/45 37/37/37 41/41/41

