# Exported by BFBB JSP Tool
mtllib [A8A8A926] fx_vissplash_drop.MTL

g obj_water
usemtl water_m

v 0.095 -0.1011 0.0031
v 0.095 -0.1011 0.0031
v 0.095 -0.1011 0.0031
v 0.1071 0.1071 -0.0301
v -0.0813 0.0984 -0.0271
v 0 -0.1376 -0.014
v 0.1465 0 -0.0069
v 0 0.1404 0.0301
v -0.1074 -0.0809 0.0038
v 0.0868 0.0908 0.0718
v -0.0864 0.0895 0.0441
v -0.0864 0.0895 0.0441
v -0.0049 -0.0858 0.1174
v 0.0818 0 0.1144
v -0.0049 0.0858 0.1174
v -0.0816 0 0.1092
v -0.0049 0 0.1352
v -0.0444 0.0915 -0.1351
v -0.0977 0.0432 -0.1351
v -0.0902 -0.035 -0.1351
v -0.0055 -0.0928 -0.1351
v 0.0696 -0.0672 -0.1351
v 0.1059 0.0032 -0.1351
v 0.0671 0.0917 -0.1351
v 0.0003 0.0109 -0.3172
v -0.1355 0.0239 -0.0212
v -0.1355 0.0239 -0.0212
v -0.1355 0.0239 -0.0212
v 0.0013 0.0423 -0.2993
v -0.0307 0.0177 -0.2993
v -0.0148 -0.0198 -0.2993
v 0.0229 -0.0109 -0.2993
v 0.0295 0.0218 -0.2993
v 0.0128 0.099 -0.1351
v 0.0023 0.135 -0.0382
v 0.0023 0.135 -0.0382

vn 0.6616 -0.727 0.1834
vn 0.6616 -0.727 0.1834
vn 0.6616 -0.727 0.1834
vn 0.6193 0.7848 -0.0187
vn -0.6061 0.794 -0.0456
vn -0.0803 -0.9965 0.0205
vn 0.9961 -0.0669 0.0571
vn -0.0769 0.9741 0.2122
vn -0.7896 -0.5937 0.1546
vn 0.5291 0.6541 0.5404
vn -0.6284 0.6675 0.3992
vn -0.6284 0.6675 0.3992
vn -0.0554 -0.6555 0.7531
vn 0.6053 -0.0566 0.7939
vn -0.085 0.5399 0.8373
vn -0.7017 0.0299 0.7118
vn -0.0463 0 0.9989
vn -0.5111 0.8031 -0.3061
vn -0.9022 0.2603 -0.3437
vn -0.7742 -0.5336 -0.3402
vn -0.1159 -0.9238 -0.3648
vn 0.6235 -0.6892 -0.369
vn 0.9305 -0.0294 -0.3649
vn 0.6235 0.6902 -0.367
vn 0.0312 0.0125 -0.9994
vn -0.9826 0.1806 0.0431
vn -0.9826 0.1806 0.0431
vn -0.9826 0.1806 0.0431
vn -0.0131 0.7505 -0.6606
vn -0.6507 0.3907 -0.651
vn -0.3814 -0.6367 -0.6701
vn 0.5022 -0.528 -0.6847
vn 0.6863 0.2971 -0.6638
vn -0.0274 0.9431 -0.3311
vn -0.0608 0.9816 -0.1808
vn -0.0608 0.9816 -0.1808

vt 0.6566 1.2408
vt 0.6566 1.2408
vt 0.6566 1.2408
vt 0.2966 1.3222
vt 0.2809 1.3376
vt 0.8231 1.1767
vt 0.4818 1.2499
vt 0.1678 1.1767
vt 0.6066 1.1778
vt 0.3248 1.1594
vt 0.3523 1.1816
vt 0.3523 1.1816
vt 0.6757 0.9956
vt 0.4818 1.0913
vt 0.2904 0.9956
vt 0.4818 1.0805
vt 0.483 0.9586999
vt 0.3012 1.5943
vt 0.4293 1.5309
vt 0.5429 1.5309
vt 0.7149 1.6136
vt 0.6283 1.5433
vt 0.4873 1.5309
vt 0.3589 1.5373
vt 0.4585 1.8972
vt 0.4772 1.2308
vt 0.4772 1.2308
vt 0.4772 1.2308
vt 0.3879 1.8601
vt 0.4354 1.8515
vt 0.5276 1.8601
vt 0.4846 1.8515
vt 0.4284 1.8515
vt 0.2633 1.6429
vt 0.1844 1.3186
vt 0.1844 1.3186

f 35/35/35 4/4/4 34/34/34
f 4/4/4 24/24/24 34/34/34
f 7/7/7 23/23/23 4/4/4
f 4/4/4 23/23/23 24/24/24
f 5/5/5 36/36/36 18/18/18
f 36/36/36 34/34/34 18/18/18
f 9/9/9 20/20/20 6/6/6
f 6/6/6 20/20/20 21/21/21
f 4/4/4 8/8/8 10/10/10
f 8/8/8 5/5/5 12/12/12
f 9/9/9 6/6/6 13/13/13
f 6/6/6 3/3/3 13/13/13
f 7/7/7 14/14/14 2/2/2
f 14/14/14 7/7/7 10/10/10
f 10/10/10 7/7/7 4/4/4
f 10/10/10 8/8/8 15/15/15
f 8/8/8 12/12/12 15/15/15
f 16/16/16 9/9/9 13/13/13
f 17/17/17 13/13/13 14/14/14
f 13/13/13 3/3/3 14/14/14
f 17/17/17 14/14/14 15/15/15
f 14/14/14 10/10/10 15/15/15
f 17/17/17 15/15/15 16/16/16
f 15/15/15 12/12/12 16/16/16
f 17/17/17 16/16/16 13/13/13
f 19/19/19 18/18/18 30/30/30
f 19/19/19 30/30/30 20/20/20
f 20/20/20 30/30/30 31/31/31
f 22/22/22 32/32/32 23/23/23
f 23/23/23 32/32/32 33/33/33
f 24/24/24 23/23/23 33/33/33
f 33/33/33 29/29/29 24/24/24
f 29/29/29 34/34/34 24/24/24
f 1/1/1 6/6/6 22/22/22
f 6/6/6 21/21/21 22/22/22
f 1/1/1 22/22/22 7/7/7
f 22/22/22 23/23/23 7/7/7
f 16/16/16 11/11/11 28/28/28
f 28/28/28 11/11/11 5/5/5
f 9/9/9 16/16/16 28/28/28
f 9/9/9 26/26/26 20/20/20
f 19/19/19 20/20/20 26/26/26
f 30/30/30 29/29/29 25/25/25
f 31/31/31 30/30/30 25/25/25
f 32/32/32 31/31/31 25/25/25
f 33/33/33 32/32/32 25/25/25
f 29/29/29 33/33/33 25/25/25
f 31/31/31 21/21/21 20/20/20
f 22/22/22 21/21/21 32/32/32
f 21/21/21 31/31/31 32/32/32
f 30/30/30 18/18/18 29/29/29
f 18/18/18 34/34/34 29/29/29
f 36/36/36 5/5/5 8/8/8
f 8/8/8 4/4/4 35/35/35
f 27/27/27 5/5/5 19/19/19
f 19/19/19 5/5/5 18/18/18

