# Exported by BFBB JSP Tool
mtllib [F343B7B2] hand_alternate.MTL

g obj_hook
usemtl hook_m

v -0.3507 -1.3346 0
v -0.3394 -0.4215 0
v -0.3394 -0.4215 0
v -0.3367 -0.1438 0
v -0.3334 -0.389 0
v -0.3271 -0.1284 0
v -0.3267 -1.0294 0
v -0.3225 -1.1185 0
v -0.3221 -0.1148 0
v -0.3197 -0.093 0
v -0.3194 -0.0477 0
v -0.3182 -0.3107 0
v -0.3151 -0.0329 0
v -0.3149 -0.2122 0
v -0.3135 -0.4436 0
v -0.3105 -0.1706 0
v -0.3101 0.1498 0
v -0.3086 -0.7793 0
v -0.3063 -0.0244 0
v -0.3046 -0.8625 0
v -0.2998 -0.9306 0
v -0.2886 -0.0091 0
v -0.2876 -0.6399 0
v -0.284 0.005 0
v -0.2826 0.0684 0
v -0.2717 0.0048 0
v -0.2717 0.0135 0
v -0.265 0.1562 0
v -0.264 -0.4633 0
v -0.2485 -0.5243 0
v -0.2429 -0.4812 0
v -0.2403 -1.3346 0
v -0.2361 0.6438 0
v -0.229 0.7267 0
v -0.2289 0.6286 0
v -0.2112 0.5898 0
v -0.2099 0.7848 0
v -0.2098 -1.1204 0
v -0.1953 0.8146 0
v -0.1926 0.5606 0
v -0.1882 -0.7937 0
v -0.1781 0.8526 0
v -0.1694 0.5365 0
v -0.1685 0.6733 0
v -0.1681 0.6399 0
v -0.1655 0.8152 0
v -0.1622 0.2549 0
v -0.1587 0.6215 0
v -0.1583 -0.5988 0
v -0.1489 -0.4127 0
v -0.1489 -0.4127 0
v -0.1479 0.8084 0
v -0.1465 0.7383 0
v -0.1435 -0.1557 0
v -0.1431 -0.2976 0
v -0.1399 0.323 0
v -0.1364 -0.4887 0
v -0.1361 0.747 0
v -0.1346 0.574 0
v -0.1338 0.5031 0
v -0.1338 0.6391 0
v -0.1242 0.8961 0
v -0.1201 0.3575 0
v -0.1182 0.8246 0
v -0.116 0.6387 0
v -0.1141 0.7655 0
v -0.1079 0.66 0
v -0.1045 0.0016 0
v -0.0918 0.138 0
v -0.0887 0.8386 0
v -0.0885 0.3958 0
v -0.0636 0.788 0
v -0.0487 0.8501 0
v -0.0417 0.7847 0
v -0.0093 -0.4947 0
v -0.0083 0.4776 0
v -0.0079 -0.5916 0
v -0.0079 -0.4091 0
v -0.0079 -0.4091 0
v -0.0068 -0.834 0
v -0.0065 -0.2886 0
v -0.0063 0.2683 0
v -0.0042 0.135 0
v -0.002 0.7765 0
v -0.001 0.294 0
v -0.0006 -0.1557 0
v 0.0002 -1.3346 0
v 0.0004 0.0021 0
v 0.0011 -1.1175 0
v 0.0025 0.8452 0
v 0.0038 0.2585 0
v 0.0049 0.3035 0
v 0.0055 0.3251 0
v 0.0084 0.2175 0
v 0.0261 0.3308 0
v 0.0299 0.8341 0
v 0.0366 0.2409 0
v 0.0404 0.742 0
v 0.0454 0.5292 0
v 0.0584 0.5511 0
v 0.0601 0.8207 0
v 0.0602 0.7106 0
v 0.0709 0.5795 0
v 0.0785 0.6362 0
v 0.0825 0.3982 0
v 0.0912 0.7998 0
v 0.1 -0.502 0
v 0.101 -0.4055 0
v 0.101 -0.4055 0
v 0.1014 0.1502 0
v 0.1024 -0.2831 0
v 0.1036 0.1827 0
v 0.1082 0.7846 0
v 0.1132 -0.5862 0
v 0.1192 0.1851 -0.0002
v 0.1199 -0.0051 0
v 0.1276 0.4467 0
v 0.1332 -0.1412 0
v 0.1515 0.7273 0
v 0.1564 0.5025 0
v 0.1688 0.536 0
v 0.1697 -0.8211 0
v 0.1708 0.5278 0
v 0.176 -0.5109 0
v 0.1765 0.6743 0
v 0.1814 0.5648 0
v 0.182 -0.5434 0
v 0.1849 0.6224 0
v 0.1857 0.5801 0
v 0.1879 -0.4449 0
v 0.1915 -0.5597 0
v 0.2031 -1.1032 0
v 0.2052 -0.4275 0
v 0.2064 0.1551 -0.0012
v 0.2093 0.0268 0
v 0.2134 -0.0018 0
v 0.2136 -0.5892 0
v 0.2203 -0.6158 0
v 0.226 0.1581 -0.001
v 0.2302 -0.6455 0
v 0.2316 0.1508 -0.0007
v 0.2338 -0.6779 0
v 0.2374 -0.4155 0
v 0.2374 -0.4155 0
v 0.2377 0.1168 0
v 0.2393 -0.7122 0
v 0.2402 -0.0247 0
v 0.2422 0.125 0
v 0.2467 -1.3346 0
v 0.2479 -0.7828 0
v 0.2485 -0.1011 0
v 0.2528 -0.1455 0
v 0.2612 -0.8567 0
v 0.2627 -0.2457 0
v 0.2629 -0.4003 0
v 0.2643 -0.1912 0
v 0.2771 -0.2979 0
v 0.2914 -0.953 0
v 0.3002 -1.0243 0
v 0.3117 -1.2055 0
v 0.3471 -1.3346 0

vn -0.459831 -0.009100613 0.8879598
vn -0.5682445 -0.025502 0.8224645
vn -0.5682445 -0.025502 0.8224645
vn -0.5351534 0.1417142 0.8327832
vn -0.5682445 -0.025502 0.8224645
vn -0.5351534 0.1417142 0.8327832
vn -0.4437334 0.01280096 0.8960674
vn -0.4545176 -0.002400093 0.8907345
vn -0.5351534 0.1417142 0.8327832
vn -0.4241315 0.3463257 0.8367622
vn -0.4241315 0.3463257 0.8367622
vn -0.5682445 -0.025502 0.8224645
vn -0.4241315 0.3463257 0.8367622
vn -0.5351534 0.1417142 0.8327832
vn -0.5682445 -0.025502 0.8224645
vn -0.5351534 0.1417142 0.8327832
vn -0.5194531 -0.0508052 0.8529873
vn -0.4606363 0.04650367 0.8863699
vn -0.4241315 0.3463257 0.8367622
vn -0.4248485 0.04170476 0.9043033
vn -0.4437334 0.01280096 0.8960674
vn -0.4241315 0.3463257 0.8367622
vn -0.4954325 0.06830448 0.8659567
vn -0.4241315 0.3463257 0.8367622
vn -0.4241315 0.3463257 0.8367622
vn -0.4241315 0.3463257 0.8367622
vn -0.4241315 0.3463257 0.8367622
vn 0 0 1
vn -0.5404464 0.05510473 0.8395721
vn -0.5404464 0.05510473 0.8395721
vn -0.5404464 0.05510473 0.8395721
vn -0.278213 -0.01830086 0.960345
vn 0 0 1
vn 0 0 1
vn 0 0 1
vn 0 0 1
vn 0 0 1
vn -0.3241221 0.009800669 0.9459645
vn 0 0 1
vn 0 0 1
vn -0.2573144 0.02300129 0.966054
vn 0 0 1
vn 0 0 1
vn 0 0 1
vn 0 0 1
vn 0 0 1
vn 0 0 1
vn 0 0 1
vn -0.3752235 0.01190075 0.926858
vn -0.388509 -0.02030047 0.9212213
vn -0.388509 -0.02030047 0.9212213
vn 0 0 1
vn 0 0 1
vn -0.4050466 0.2233257 0.8866019
vn -0.388509 -0.02030047 0.9212213
vn 0 0 1
vn -0.3752235 0.01190075 0.926858
vn 0 0 1
vn 0 0 1
vn 0 0 1
vn 0 0 1
vn 0.1368102 0.2525188 0.9578712
vn 0 0 1
vn 0 0 1
vn 0 0 1
vn 0 0 1
vn 0 0 1
vn -0.08541039 0.3569434 0.9302131
vn -0.3286199 -0.02400146 0.9441573
vn 0 0 1
vn 0 0 1
vn 0 0 1
vn 0 0 1
vn 0 0 1
vn 0.03670218 -0.03650217 0.9986594
vn 0 0 1
vn 0.03670218 -0.03650217 0.9986594
vn 0.0262016 -0.05280323 0.9982612
vn 0.0262016 -0.05280323 0.9982612
vn 0.02720045 0.005200086 0.9996166
vn 0.0262016 -0.05280323 0.9982612
vn 0 0 1
vn -0.08541039 0.3569434 0.9302131
vn 0 0 1
vn 0 0 1
vn -0.08541039 0.3569434 0.9302131
vn 0.009700899 -0.01790166 0.9997928
vn -0.08541039 0.3569434 0.9302131
vn 0.0143014 0.0003000294 0.9998978
vn 0 0 1
vn 0 0 1
vn 0 0 1
vn 0.09920404 0.08370341 0.9915404
vn -0.06770699 0.116312 0.9909023
vn 0 0 1
vn 0 0 1
vn 0 0 1
vn 0 0 1
vn 0 0 1
vn 0 0 1
vn 0 0 1
vn 0 0 1
vn 0 0 1
vn 0 0 1
vn 0 0 1
vn 0 0 1
vn 0.4690587 -0.08661082 0.8789099
vn 0.452056 -0.05470678 0.8903104
vn 0.452056 -0.05470678 0.8903104
vn 0.4082438 0.251327 0.8775942
vn 0.452056 -0.05470678 0.8903104
vn 0.003000286 0 0.9999955
vn 0 0 1
vn 0.5814414 0.1675119 0.7961568
vn 0.01220031 -0.0002000051 0.9999256
vn 0.4082438 0.251327 0.8775942
vn 0 0 1
vn 0.4082438 0.251327 0.8775942
vn 0 0 1
vn 0 0 1
vn 0 0 1
vn 0.2844088 0.03850119 0.9579297
vn 0 0 1
vn 0.5814414 0.1675119 0.7961568
vn 0 0 1
vn 0 0 1
vn 0.5814414 0.1675119 0.7961568
vn 0 0 1
vn 0 0 1
vn 0.6176711 -0.1101127 0.7786896
vn 0.5814414 0.1675119 0.7961568
vn 0.2845175 0.02810173 0.9582589
vn 0.6176711 -0.1101127 0.7786896
vn 0.6697298 -0.1138051 0.7338327
vn 0.6697298 -0.1138051 0.7338327
vn 0.6395403 0.2344148 0.7321461
vn 0.5814414 0.1675119 0.7961568
vn 0.5909374 0.2196139 0.7762491
vn -0.01440048 0.03640122 0.9992336
vn 0.5909374 0.2196139 0.7762491
vn -0.02680161 0.01900114 0.9994602
vn 0.5909374 0.2196139 0.7762491
vn 0.6176711 -0.1101127 0.7786896
vn 0.6176711 -0.1101127 0.7786896
vn 0.6697298 -0.1138051 0.7338327
vn 0.5909374 0.2196139 0.7762491
vn 0.6395403 0.2344148 0.7321461
vn -0.02960076 0.01650042 0.9994256
vn 0.2892289 0.01110111 0.9571956
vn 0.476824 0.09130459 0.874244
vn 0.6395403 0.2344148 0.7321461
vn 0.6395403 0.2344148 0.7321461
vn 0.4332227 0.0649034 0.898947
vn 0.6230558 -0.05600502 0.7801698
vn 0.6230558 -0.05600502 0.7801698
vn 0.6230558 -0.05600502 0.7801698
vn 0.6230558 -0.05600502 0.7801698
vn 0.4407365 0.05460452 0.8959742
vn 0.4407365 0.05460452 0.8959742
vn 0.4628141 0.03060093 0.8859271
vn 0.4628141 0.03060093 0.8859271

vc 235 235 235 255
vc 235 235 235 255
vc 235 235 235 255
vc 235 235 235 255
vc 235 235 235 255
vc 235 235 235 255
vc 235 235 235 255
vc 235 235 235 255
vc 235 235 235 255
vc 235 235 235 255
vc 235 235 235 255
vc 235 235 235 255
vc 235 235 235 255
vc 235 235 235 255
vc 235 235 235 255
vc 235 235 235 255
vc 235 235 235 255
vc 235 235 235 255
vc 235 235 235 255
vc 235 235 235 255
vc 235 235 235 255
vc 235 235 235 255
vc 235 235 235 255
vc 235 235 235 255
vc 235 235 235 255
vc 235 235 235 255
vc 235 235 235 255
vc 235 235 235 255
vc 235 235 235 255
vc 235 235 235 255
vc 235 235 235 255
vc 235 235 235 255
vc 235 235 235 255
vc 235 235 235 255
vc 235 235 235 255
vc 235 235 235 255
vc 235 235 235 255
vc 235 235 235 255
vc 235 235 235 255
vc 235 235 235 255
vc 235 235 235 255
vc 235 235 235 255
vc 235 235 235 255
vc 235 235 235 255
vc 235 235 235 255
vc 235 235 235 255
vc 235 235 235 255
vc 235 235 235 255
vc 235 235 235 255
vc 235 235 235 255
vc 235 235 235 255
vc 235 235 235 255
vc 235 235 235 255
vc 235 235 235 255
vc 235 235 235 255
vc 235 235 235 255
vc 235 235 235 255
vc 235 235 235 255
vc 235 235 235 255
vc 235 235 235 255
vc 235 235 235 255
vc 235 235 235 255
vc 235 235 235 255
vc 235 235 235 255
vc 235 235 235 255
vc 235 235 235 255
vc 235 235 235 255
vc 235 235 235 255
vc 235 235 235 255
vc 235 235 235 255
vc 235 235 235 255
vc 235 235 235 255
vc 235 235 235 255
vc 235 235 235 255
vc 235 235 235 255
vc 235 235 235 255
vc 235 235 235 255
vc 235 235 235 255
vc 235 235 235 255
vc 235 235 235 255
vc 235 235 235 255
vc 235 235 235 255
vc 235 235 235 255
vc 235 235 235 255
vc 235 235 235 255
vc 235 235 235 255
vc 235 235 235 255
vc 235 235 235 255
vc 235 235 235 255
vc 235 235 235 255
vc 235 235 235 255
vc 235 235 235 255
vc 235 235 235 255
vc 235 235 235 255
vc 235 235 235 255
vc 235 235 235 255
vc 235 235 235 255
vc 235 235 235 255
vc 235 235 235 255
vc 235 235 235 255
vc 235 235 235 255
vc 235 235 235 255
vc 235 235 235 255
vc 235 235 235 255
vc 235 235 235 255
vc 235 235 235 255
vc 235 235 235 255
vc 235 235 235 255
vc 235 235 235 255
vc 235 235 235 255
vc 235 235 235 255
vc 235 235 235 255
vc 235 235 235 255
vc 235 235 235 255
vc 235 235 235 255
vc 235 235 235 255
vc 235 235 235 255
vc 235 235 235 255
vc 235 235 235 255
vc 235 235 235 255
vc 235 235 235 255
vc 235 235 235 255
vc 235 235 235 255
vc 235 235 235 255
vc 235 235 235 255
vc 235 235 235 255
vc 235 235 235 255
vc 235 235 235 255
vc 235 235 235 255
vc 235 235 235 255
vc 235 235 235 255
vc 235 235 235 255
vc 235 235 235 255
vc 235 235 235 255
vc 235 235 235 255
vc 235 235 235 255
vc 235 235 235 255
vc 235 235 235 255
vc 235 235 235 255
vc 235 235 235 255
vc 235 235 235 255
vc 235 235 235 255
vc 235 235 235 255
vc 235 235 235 255
vc 235 235 235 255
vc 235 235 235 255
vc 235 235 235 255
vc 235 235 235 255
vc 235 235 235 255
vc 235 235 235 255
vc 235 235 235 255
vc 235 235 235 255
vc 235 235 235 255
vc 235 235 235 255
vc 235 235 235 255
vc 235 235 235 255
vc 235 235 235 255
vc 235 235 235 255
vc 235 235 235 255
vc 235 235 235 255
vc 235 235 235 255

vt 1.9744 0.3614
vt 0.8934 0.9885
vt 1.9512 0.7023
vt 0.7809 0.9748
vt 0.888 0.9907
vt 0.7565 0.9582
vt 1.9713 0.4585
vt 1.9719 0.4302
vt 0.735 0.9494
vt 0.7005 0.9453
vt 0.6634 0.9417
vt 0.9934 0.9903
vt 0.6415 0.9344
vt 0.8891 0.9903
vt 1.951 0.6961
vt 0.8233 0.9883
vt 0.5223 0.8646
vt 1.9602 0.599
vt 0.6297 0.9191
vt 1.9648 0.5527
vt 1.9694 0.49
vt 0.6304 0.8918
vt 1.9564 0.6345
vt 0.6291 0.8651
vt 0.6286 0.8551
vt 0.629 0.8501
vt 0.6289 0.8501
vt 0.5136 0.8742
vt 1.9511 0.6874
vt 1.9528 0.6677
vt 1.9518 0.6786
vt 1.9619 0.363
vt 0.1721 0.7696
vt 0.1147 0.7603
vt 0.202 0.7386
vt 0.2319 0.7076
vt 0.0754 0.7347
vt 1.958 0.4314
vt 0.0576 0.7145
vt 0.2445 0.6944
vt 1.9516 0.5231
vt 0.0296 0.6919
vt 0.2508 0.6794
vt 0.154 0.6779
vt 0.1774 0.6773
vt 0.055 0.6742
vt 0.4471 0.6686
vt 0.19 0.6643
vt 1.9413 0.6468
vt 0.8931 0.7482
vt 1.938 0.7062
vt 0.0585 0.6495
vt 0.1072 0.6474
vt 0.8147 0.7013
vt 0.9934 0.7366
vt 0.4002 0.6385
vt 1.9398 0.6783
vt 0.1004 0.6328
vt 0.2226 0.6308
vt 0.2731 0.63
vt 0.1756 0.6293
vt -0.0047 0.6164
vt 0.3761 0.6114
vt 0.0449 0.6079
vt 0.1747 0.6043
vt 0.086 0.6019
vt 0.1593 0.5931
vt 0.6289 0.6331
vt 0.5319 0.5951
vt 0.0371 0.5682
vt 0.3483 0.5677
vt 0.0738 0.5342
vt 0.0318 0.5144
vt 0.0775 0.5047
vt 1.9231 0.6823
vt 0.2921 0.4582
vt 1.9242 0.6508
vt 0.8934 0.4558
vt 1.9219 0.7092
vt 1.929 0.5258
vt 0.9935 0.4531
vt 0.4391 0.4553
vt 0.5354 0.4565
vt 0.0811 0.4493
vt 0.4211 0.448
vt 0.8171 0.4537
vt 1.9345 0.3665
vt 0.6289 0.4509
vt 1.9316 0.4357
vt 0.0322 0.4428
vt 0.4461 0.4413
vt 0.4145 0.4398
vt 0.3994 0.4391
vt 0.4693 0.4434
vt 0.3952 0.4107
vt 0.0384 0.4045
vt 0.4624 0.3738
vt 0.103 0.39
vt 0.2534 0.3833
vt 0.2373 0.3651
vt 0.05 0.3639
vt 0.1258 0.363
vt 0.2179 0.3483
vt 0.1785 0.338
vt 0.3465 0.3328
vt 0.0668 0.3221
vt 1.9107 0.682
vt 0.893 0.2288
vt 1.9094 0.7117
vt 0.5214 0.2881
vt 0.9935 0.2262
vt 0.4985 0.2756
vt 0.0773 0.2992
vt 1.9103 0.6539
vt 0.4985 0.2388
vt 0.6289 0.2434
vt 0.3132 0.2712
vt 0.7913 0.2208
vt 0.1171 0.2407
vt 0.2744 0.2319
vt 0.2498 0.2144
vt 1.9067 0.5326
vt 0.2555 0.2117
vt 1.9038 0.6696
vt 0.1543 0.2061
vt 0.2297 0.2008
vt 1.9035 0.6615
vt 0.1872 0.1932
vt 0.2181 0.1941
vt 1.8999 0.6887
vt 1.9021 0.6534
vt 1.9061 0.4434
vt 1.8991 0.6989
vt 0.5359 0.1392
vt 0.6288 0.08469999
vt 0.629 0.08389997
vt 1.9007 0.6445
vt 1.8993 0.6345
vt 0.5257 0.1109
vt 1.8979 0.6232
vt 0.526 0.09759998
vt 1.8967 0.6109
vt 0.8917 0.03140002
vt 1.8986 0.7124
vt 0.5425 0.05510002
vt 1.8957 0.5978
vt 0.6584 0.03250003
vt 0.5359 0.05150002
vt 1.9064 0.3701
vt 1.8946 0.5709
vt 0.7134 0.01810002
vt 0.7836 0.01050001
vt 1.8938 0.5357
vt 0.9229 0.004299998
vt 0.8845 0.02780002
vt 0.8558 0.004999995
vt 0.9934 0.0158
vt 1.8931 0.4926
vt 1.8929 0.47
vt 1.8937 0.4125
vt 1.8949 0.3715

f 21/21/21 7/7/7 38/38/38
f 38/38/38 7/7/7 8/8/8
f 8/8/8 1/1/1 38/38/38
f 32/32/32 38/38/38 1/1/1
f 4/4/4 16/16/16 6/6/6
f 16/16/16 54/54/54 6/6/6
f 13/13/13 11/11/11 54/54/54
f 11/11/11 10/10/10 54/54/54
f 24/24/24 22/22/22 54/54/54
f 22/22/22 19/19/19 54/54/54
f 20/20/20 21/21/21 41/41/41
f 38/38/38 41/41/41 21/21/21
f 17/17/17 25/25/25 28/28/28
f 69/69/69 28/28/28 25/25/25
f 55/55/55 12/12/12 50/50/50
f 50/50/50 12/12/12 5/5/5
f 3/3/3 15/15/15 51/51/51
f 57/57/57 51/51/51 15/15/15
f 16/16/16 14/14/14 54/54/54
f 14/14/14 55/55/55 54/54/54
f 49/49/49 57/57/57 23/23/23
f 30/30/30 23/23/23 57/57/57
f 27/27/27 26/26/26 68/68/68
f 26/26/26 54/54/54 68/68/68
f 69/69/69 25/25/25 68/68/68
f 68/68/68 25/25/25 27/27/27
f 2/2/2 50/50/50 5/5/5
f 18/18/18 20/20/20 41/41/41
f 54/54/54 9/9/9 6/6/6
f 9/9/9 54/54/54 10/10/10
f 12/12/12 55/55/55 14/14/14
f 13/13/13 54/54/54 19/19/19
f 23/23/23 18/18/18 49/49/49
f 15/15/15 29/29/29 57/57/57
f 54/54/54 26/26/26 24/24/24
f 49/49/49 18/18/18 41/41/41
f 57/57/57 29/29/29 31/31/31
f 33/33/33 44/44/44 34/34/34
f 35/35/35 44/44/44 33/33/33
f 30/30/30 57/57/57 31/31/31
f 36/36/36 48/48/48 35/35/35
f 87/87/87 89/89/89 32/32/32
f 38/38/38 32/32/32 89/89/89
f 34/34/34 53/53/53 37/37/37
f 45/45/45 44/44/44 35/35/35
f 40/40/40 48/48/48 36/36/36
f 48/48/48 45/45/45 35/35/35
f 37/37/37 53/53/53 39/39/39
f 44/44/44 53/53/53 34/34/34
f 42/42/42 39/39/39 46/46/46
f 38/38/38 89/89/89 41/41/41
f 41/41/41 89/89/89 80/80/80
f 28/28/28 69/69/69 47/47/47
f 39/39/39 53/53/53 46/46/46
f 43/43/43 59/59/59 40/40/40
f 59/59/59 48/48/48 40/40/40
f 80/80/80 77/77/77 41/41/41
f 41/41/41 77/77/77 49/49/49
f 62/62/62 42/42/42 46/46/46
f 46/46/46 53/53/53 52/52/52
f 60/60/60 59/59/59 43/43/43
f 53/53/53 58/58/58 52/52/52
f 61/61/61 48/48/48 59/59/59
f 49/49/49 77/77/77 57/57/57
f 57/57/57 77/77/77 75/75/75
f 50/50/50 78/78/78 55/55/55
f 55/55/55 78/78/78 81/81/81
f 51/51/51 57/57/57 79/79/79
f 57/57/57 75/75/75 79/79/79
f 58/58/58 66/66/66 52/52/52
f 54/54/54 55/55/55 86/86/86
f 55/55/55 81/81/81 86/86/86
f 65/65/65 61/61/61 59/59/59
f 52/52/52 66/66/66 64/64/64
f 67/67/67 61/61/61 65/65/65
f 54/54/54 86/86/86 68/68/68
f 68/68/68 86/86/86 88/88/88
f 56/56/56 47/47/47 82/82/82
f 66/66/66 72/72/72 64/64/64
f 64/64/64 72/72/72 70/70/70
f 88/88/88 83/83/83 68/68/68
f 69/69/69 68/68/68 83/83/83
f 63/63/63 56/56/56 85/85/85
f 69/69/69 94/94/94 47/47/47
f 71/71/71 63/63/63 93/93/93
f 70/70/70 72/72/72 73/73/73
f 47/47/47 94/94/94 82/82/82
f 72/72/72 74/74/74 73/73/73
f 85/85/85 56/56/56 82/82/82
f 93/93/93 63/63/63 85/85/85
f 73/73/73 74/74/74 90/90/90
f 83/83/83 94/94/94 69/69/69
f 76/76/76 71/71/71 95/95/95
f 95/95/95 71/71/71 93/93/93
f 74/74/74 84/84/84 90/90/90
f 94/94/94 91/91/91 82/82/82
f 85/85/85 92/92/92 93/93/93
f 90/90/90 84/84/84 96/96/96
f 95/95/95 93/93/93 92/92/92
f 97/97/97 91/91/91 94/94/94
f 96/96/96 84/84/84 101/101/101
f 83/83/83 88/88/88 110/110/110
f 84/84/84 98/98/98 101/101/101
f 105/105/105 76/76/76 95/95/95
f 94/94/94 83/83/83 112/112/112
f 97/97/97 94/94/94 112/112/112
f 99/99/99 76/76/76 117/117/117
f 101/101/101 98/98/98 106/106/106
f 83/83/83 110/110/110 112/112/112
f 117/117/117 76/76/76 105/105/105
f 98/98/98 102/102/102 113/113/113
f 110/110/110 88/88/88 116/116/116
f 100/100/100 99/99/99 117/117/117
f 106/106/106 98/98/98 113/113/113
f 107/107/107 109/109/109 75/75/75
f 75/75/75 109/109/109 79/79/79
f 78/78/78 108/108/108 81/81/81
f 81/81/81 108/108/108 111/111/111
f 114/114/114 107/107/107 77/77/77
f 75/75/75 77/77/77 107/107/107
f 102/102/102 104/104/104 119/119/119
f 103/103/103 100/100/100 121/121/121
f 86/86/86 81/81/81 118/118/118
f 111/111/111 118/118/118 81/81/81
f 113/113/113 102/102/102 119/119/119
f 104/104/104 103/103/103 128/128/128
f 86/86/86 118/118/118 88/88/88
f 88/88/88 118/118/118 116/116/116
f 120/120/120 100/100/100 117/117/117
f 80/80/80 122/122/122 77/77/77
f 77/77/77 122/122/122 114/114/114
f 123/123/123 100/100/100 120/120/120
f 107/107/107 130/130/130 109/109/109
f 121/121/121 100/100/100 123/123/123
f 119/119/119 104/104/104 125/125/125
f 126/126/126 103/103/103 121/121/121
f 110/110/110 116/116/116 134/134/134
f 129/129/129 103/103/103 126/126/126
f 125/125/125 104/104/104 128/128/128
f 128/128/128 103/103/103 129/129/129
f 107/107/107 124/124/124 130/130/130
f 89/89/89 132/132/132 80/80/80
f 132/132/132 122/122/122 80/80/80
f 109/109/109 130/130/130 133/133/133
f 144/144/144 109/109/109 133/133/133
f 150/150/150 146/146/146 114/114/114
f 149/149/149 132/132/132 87/87/87
f 87/87/87 132/132/132 89/89/89
f 157/157/157 111/111/111 155/155/155
f 134/134/134 135/135/135 141/141/141
f 134/134/134 141/141/141 139/139/139
f 132/132/132 159/159/159 122/122/122
f 135/135/135 145/145/145 141/141/141
f 112/112/112 110/110/110 115/115/115
f 110/110/110 134/134/134 115/115/115
f 145/145/145 148/148/148 141/141/141
f 158/158/158 153/153/153 122/122/122
f 132/132/132 149/149/149 159/159/159
f 159/159/159 158/158/158 122/122/122
f 107/107/107 114/114/114 124/124/124
f 114/114/114 127/127/127 124/124/124
f 159/159/159 149/149/149 160/160/160
f 160/160/160 149/149/149 161/161/161
f 137/137/137 131/131/131 114/114/114
f 114/114/114 131/131/131 127/127/127
f 155/155/155 111/111/111 143/143/143
f 111/111/111 108/108/108 143/143/143
f 116/116/116 118/118/118 136/136/136
f 118/118/118 147/147/147 136/136/136
f 136/136/136 135/135/135 116/116/116
f 134/134/134 116/116/116 135/135/135
f 118/118/118 111/111/111 152/152/152
f 152/152/152 111/111/111 156/156/156
f 140/140/140 138/138/138 114/114/114
f 114/114/114 138/138/138 137/137/137
f 153/153/153 150/150/150 122/122/122
f 122/122/122 150/150/150 114/114/114
f 146/146/146 142/142/142 114/114/114
f 114/114/114 142/142/142 140/140/140
f 147/147/147 118/118/118 151/151/151
f 118/118/118 152/152/152 151/151/151
f 156/156/156 111/111/111 154/154/154
f 154/154/154 111/111/111 157/157/157

